<svg width="567" height="634" fill="none" xmlns="http://www.w3.org/2000/svg"><path fill-rule="evenodd" clip-rule="evenodd" d="M565.649 264.043c9.585 58.454-67.048 93.409-105.098 138.807-27.343 32.622-56.359 60.35-86.78 90.123-39.046 38.214-66.127 90.579-117.328 109.638-60.777 22.624-148.88 54.661-190.548 4.968C18.55 551.114 91 464.172 79.35 391.411c-7.142-44.6-57.026-70.752-66.47-114.922C.824 220.112-9.088 157.72 18.564 107.133 47.73 53.775 102.803 10.453 163 1.855c58.771-8.395 113.13 29.679 163.367 61.312 40.039 25.212 58.882 71.032 95.12 101.454 45.632 38.308 134.52 40.627 144.161 99.422z" fill="#F0E6DF"/></svg>