<svg xmlns="http://www.w3.org/2000/svg" width="800" height="800" viewBox="0 0 32 32" fill="#fff" stroke="#fff"><g fill="#808184"><path d="M16 0A15.888 15.888 0 004.687 4.687C1.665 7.708 0 11.727 0 16s1.665 8.292 4.687 11.313C7.708 30.336 11.726 32 16 32s8.292-1.664 11.313-4.687C30.335 24.292 32 20.273 32 16s-1.665-8.292-4.687-11.313A15.888 15.888 0 0016 0zm10.606 26.606C23.773 29.439 20.007 31 16 31s-7.773-1.561-10.606-4.394S1 20.007 1 16 2.561 8.227 5.394 5.394 11.993 1 16 1s7.773 1.561 10.606 4.394S31 11.993 31 16s-1.561 7.773-4.394 10.606z"/><path d="M22.01 9.989a.5.5 0 00-.707 0L16 15.293l-5.303-5.304a.5.5 0 00-.707.707L15.293 16 9.99 21.304a.5.5 0 00.708.707L16 16.707l5.303 5.304a.498.498 0 00.708 0 .5.5 0 000-.707L16.707 16l5.303-5.304a.499.499 0 000-.707z"/></g></svg>