<svg width="224" height="110" fill="none" xmlns="http://www.w3.org/2000/svg"><path d="M72.2 49.768c1.184 0 2.219.235 3.104.704a4.963 4.963 0 012.048 1.984c.49.843.736 1.819.736 2.928 0 1.099-.245 2.075-.736 2.928a4.94 4.94 0 01-2.064 1.984c-.885.47-1.915.704-3.088.704h-4.208V49.768H72.2zm-.176 8.864c1.035 0 1.84-.283 2.416-.848.576-.565.864-1.365.864-2.4s-.288-1.84-.864-2.416c-.576-.576-1.381-.864-2.416-.864h-1.296v6.528h1.296zm13.033-6.656c1.045 0 1.877.341 2.496 1.024.63.672.944 1.6.944 2.784V61h-2.72v-4.848c0-.597-.155-1.061-.464-1.392-.31-.33-.725-.496-1.248-.496s-.939.165-1.248.496c-.31.33-.464.795-.464 1.392V61h-2.736v-8.928h2.736v1.184c.277-.395.65-.704 1.12-.928a3.49 3.49 0 011.584-.352zm6.717-.832c-.48 0-.874-.139-1.184-.416a1.41 1.41 0 01-.448-1.056c0-.427.15-.779.448-1.056.31-.288.704-.432 1.184-.432.47 0 .854.144 1.152.432.31.277.464.63.464 1.056 0 .416-.154.768-.464 1.056-.298.277-.682.416-1.152.416zm1.36.928V61h-2.736v-8.928h2.736zm9.582-2.304c1.184 0 2.218.235 3.104.704a4.965 4.965 0 012.048 1.984c.49.843.736 1.819.736 2.928 0 1.099-.246 2.075-.736 2.928a4.94 4.94 0 01-2.064 1.984c-.886.47-1.915.704-3.088.704h-4.208V49.768h4.208zm-.176 8.864c1.034 0 1.84-.283 2.416-.848.576-.565.864-1.365.864-2.4s-.288-1.84-.864-2.416c-.576-.576-1.382-.864-2.416-.864h-1.296v6.528h1.296zm11.657 2.496c-.875 0-1.664-.187-2.368-.56a4.162 4.162 0 01-1.648-1.6c-.395-.693-.592-1.504-.592-2.432 0-.917.202-1.723.608-2.416a4.109 4.109 0 011.664-1.616c.704-.373 1.493-.56 2.368-.56.874 0 1.664.187 2.368.56a4.115 4.115 0 011.664 1.616c.405.693.608 1.499.608 2.416 0 .917-.208 1.728-.624 2.432a4.123 4.123 0 01-1.68 1.6c-.704.373-1.494.56-2.368.56zm0-2.368c.522 0 .965-.192 1.328-.576.373-.384.56-.933.56-1.648 0-.715-.182-1.264-.544-1.648a1.708 1.708 0 00-1.312-.576c-.534 0-.976.192-1.328.576-.352.373-.528.923-.528 1.648 0 .715.17 1.264.512 1.648.352.384.789.576 1.312.576zm22.234-8.992V61h-2.736v-6.736L131.183 61h-2.208l-2.528-6.752V61h-2.736V49.768h3.232l3.152 7.776 3.12-7.776h3.216zm1.423 6.752c0-.917.171-1.723.512-2.416.352-.693.827-1.227 1.424-1.6a3.699 3.699 0 012-.56c.63 0 1.179.128 1.648.384.48.256.848.592 1.104 1.008v-1.264h2.736V61h-2.736v-1.264c-.266.416-.64.752-1.12 1.008-.469.256-1.018.384-1.648.384a3.671 3.671 0 01-1.984-.56c-.597-.384-1.072-.923-1.424-1.616-.341-.704-.512-1.515-.512-2.432zm6.688.016c0-.683-.192-1.221-.576-1.616a1.82 1.82 0 00-1.376-.592 1.87 1.87 0 00-1.392.592c-.373.384-.56.917-.56 1.6s.187 1.227.56 1.632a1.87 1.87 0 001.392.592 1.82 1.82 0 001.376-.592c.384-.395.576-.933.576-1.616zm9.692 2.144V61h-1.392c-.992 0-1.766-.24-2.32-.72-.555-.49-.832-1.285-.832-2.384v-3.552h-1.088v-2.272h1.088v-2.176h2.736v2.176h1.792v2.272h-1.792v3.584c0 .267.064.459.192.576.128.117.341.176.64.176h.976zm10.34-6.608V61h-2.736v-1.216a3.06 3.06 0 01-1.136.96c-.47.235-.992.352-1.568.352-.683 0-1.286-.15-1.808-.448a3.123 3.123 0 01-1.216-1.328c-.288-.576-.432-1.253-.432-2.032v-5.216h2.72v4.848c0 .597.154 1.061.464 1.392.309.33.725.496 1.248.496.533 0 .954-.165 1.264-.496.309-.33.464-.795.464-1.392v-4.848h2.736zm4.701 1.488c.32-.49.72-.875 1.2-1.152a3.05 3.05 0 011.6-.432v2.896h-.752c-.683 0-1.195.15-1.536.448-.341.288-.512.8-.512 1.536V61h-2.736v-8.928h2.736v1.488zm13.228-1.488l-5.6 13.168h-2.944l2.048-4.544-3.632-8.624h3.056l2.064 5.584 2.048-5.584h2.96zM0 15h15v80H0z" fill="#fff"/><path d="M109.641 75A40.001 40.001 0 0135 55a40 40 0 0174.641-20l-10.392 6a28 28 0 100 28l10.392 6zM134 35a40.003 40.003 0 0144.994-18.637A39.999 39.999 0 11134 75l10.392-6a28 28 0 100-28L134 35z" fill="#fff"/></svg>