<svg width="312" height="636" fill="none" xmlns="http://www.w3.org/2000/svg"><g filter="url(#filter0_i_8_584)"><path d="M2.132 58.943C2.132 26.74 28.224.633 60.41.633h191.891c32.186 0 58.278 26.107 58.278 58.31v518.382c0 32.203-26.092 58.309-58.278 58.309H60.41c-32.186 0-58.278-26.106-58.278-58.309V58.943z" fill="#1E1D1B"/></g><g filter="url(#filter1_i_8_584)"><path fill-rule="evenodd" clip-rule="evenodd" d="M252.301 1.345H60.41c-31.793 0-57.567 25.788-57.567 57.598v518.382c0 31.81 25.773 57.598 57.567 57.598h191.891c31.793 0 57.567-25.788 57.567-57.598V58.943c0-31.81-25.774-57.598-57.567-57.598zM60.41.634C28.224.634 2.132 26.74 2.132 58.943v518.382c0 32.203 26.092 58.309 58.278 58.309h191.891c32.186 0 58.278-26.106 58.278-58.309V58.943c0-32.203-26.092-58.31-58.278-58.31H60.41z" fill="#1E1D1B"/></g><path d="M6.396 58.943C6.396 29.096 30.58 4.9 60.41 4.9h191.891c29.831 0 54.013 24.196 54.013 54.043v518.382c0 29.847-24.182 54.042-54.013 54.042H60.41c-29.83 0-54.014-24.195-54.014-54.042V58.943z" fill="#000"/><path fill-rule="evenodd" clip-rule="evenodd" d="M252.301 5.611H60.41c-29.438 0-53.303 23.878-53.303 53.332v518.382c0 29.454 23.865 53.331 53.303 53.331h191.891c29.438 0 53.303-23.877 53.303-53.331V58.943c0-29.454-23.865-53.332-53.303-53.332zM60.41 4.901C30.58 4.9 6.396 29.095 6.396 58.942v518.382c0 29.847 24.183 54.042 54.014 54.042h191.891c29.831 0 54.013-24.195 54.013-54.042V58.943c0-29.847-24.182-54.043-54.013-54.043H60.41z" fill="#2C2C2D"/><g filter="url(#filter2_i_8_584)"><path d="M125.017 7.39c-1.514 0-2.007-1.095-2.065-1.642v-.492h65.385v.328c0 1.444-1.376 1.805-2.065 1.805h-61.255z" fill="#1E1D1B"/></g><g filter="url(#filter3_i_8_584)"><path fill-rule="evenodd" clip-rule="evenodd" d="M122.597 4.9h66.095v.684c0 .86-.42 1.418-.94 1.745a2.901 2.901 0 01-1.48.416h-61.255c-.853 0-1.449-.312-1.838-.728a2.208 2.208 0 01-.58-1.232l-.002-.018V4.9zm.711.711v.117a1.5 1.5 0 00.39.803c.25.268.657.503 1.319.503h61.255c.296 0 .742-.08 1.102-.307.335-.21.599-.547.608-1.116h-64.674z" fill="#272728"/></g><path d="M14.925 61.787c0-26.705 21.637-48.353 48.328-48.353h186.205c26.691 0 48.328 21.648 48.328 48.353V574.48c0 26.706-21.637 48.354-48.328 48.354H63.253c-26.691 0-48.328-21.648-48.328-48.354V61.787z" fill="url(#paint0_linear_8_584)"/><path fill-rule="evenodd" clip-rule="evenodd" d="M226.36 31.21c-.589 0-1.066.478-1.066 1.067V40.1a1.066 1.066 0 102.132 0v-7.822c0-.589-.477-1.066-1.066-1.066zm-4.975 3.2a1.066 1.066 0 112.132 0v5.69a1.066 1.066 0 11-2.132 0v-5.69zm-2.843 1.778c-.589 0-1.066.478-1.066 1.067v2.844a1.066 1.066 0 102.132 0v-2.844c0-.59-.477-1.067-1.066-1.067zm-3.909 1.422c-.589 0-1.066.478-1.066 1.067v1.422a1.066 1.066 0 102.132 0v-1.422c0-.59-.477-1.067-1.066-1.067zm32.509-3.37a.346.346 0 00-.029-.498 10.656 10.656 0 00-13.715-.063.347.347 0 00-.033.498l1.063 1.194a.368.368 0 00.507.035 8.347 8.347 0 0110.626.048.367.367 0 00.507-.03l1.074-1.185zm-2.652 2.438a.34.34 0 00-.006-.495 6.397 6.397 0 00-8.53 0 .34.34 0 00-.007.495l.88.88a.378.378 0 00.512.01 4.442 4.442 0 015.76 0 .378.378 0 00.512-.01l.879-.88zm-4.271.932c.823 0 1.617.286 2.249.803a.33.33 0 01.012.49l-2.01 2.011a.356.356 0 01-.503 0l-2.01-2.01c-.138-.14-.139-.366.012-.49a3.553 3.553 0 012.25-.804zm14.924-5.688h14.215c1.177 0 2.132.955 2.132 2.133v4.977a2.133 2.133 0 01-2.132 2.134h-14.215a2.133 2.133 0 01-2.132-2.133v-4.978c0-1.178.955-2.133 2.132-2.133zm0 .71c-.785 0-1.421.637-1.421 1.423v4.977c0 .786.636 1.423 1.421 1.423h14.215c.785 0 1.421-.637 1.421-1.422v-4.978c0-.786-.636-1.422-1.421-1.422h-14.215zm-.71 2.134c0-.785.636-1.422 1.421-1.422h12.793c.785 0 1.421.636 1.421 1.422v3.555c0 .786-.636 1.423-1.421 1.423h-12.793a1.421 1.421 0 01-1.421-1.423v-3.555zm19.189 1.778c0 .982-.637 1.777-1.422 1.777v-3.555c.785 0 1.422.796 1.422 1.778z" fill="#000103"/><path d="M59.222 32.5c-1.834 0-3.185 1.234-3.185 2.952v.012c0 1.6 1.156 2.78 2.796 2.78 1.15 0 2-.59 2.336-1.37h.036c0 .095-.006.184-.012.272-.06 1.612-.631 2.922-2 2.922-.761 0-1.28-.378-1.51-.962l-.018-.053h-1.51l.012.065c.265 1.286 1.445 2.195 3.02 2.195 2.171 0 3.475-1.682 3.475-4.497v-.012c0-2.987-1.563-4.303-3.44-4.303zm0 4.57c-.967 0-1.687-.691-1.687-1.66v-.01c0-.92.761-1.653 1.705-1.653.956 0 1.7.738 1.7 1.682v.006c0 .95-.744 1.635-1.718 1.635zm5.823-1.476c.478 0 .85-.378.85-.856a.839.839 0 00-.85-.85.844.844 0 00-.856.85.85.85 0 00.856.856zm0 4.332c.478 0 .85-.378.85-.856a.839.839 0 00-.85-.85.844.844 0 00-.856.85.85.85 0 00.856.856zm6.565 1.24h1.452V39.53h1.156v-1.252h-1.156v-5.63h-2.165l-3.534 5.583v1.299h4.247v1.635zm-2.879-2.851v-.041l2.868-4.475h.035v4.516H68.73zm9.056 2.851h1.492v-8.518h-1.504l-2.224 1.565v1.398l2.2-1.51h.035v7.065z" fill="#000"/><path d="M309.868 180.539h1.421a.71.71 0 01.711.711v68.975a.71.71 0 01-.711.711h-1.421v-70.397z" fill="url(#paint1_linear_8_584)"/><path fill-rule="evenodd" clip-rule="evenodd" d="M311.289 180.894h-1.066v69.687h1.066a.356.356 0 00.356-.356V181.25a.356.356 0 00-.356-.356zm-1.421-.355v70.397h1.421a.71.71 0 00.711-.711V181.25a.71.71 0 00-.711-.711h-1.421z" fill="#474C57"/><path d="M.71 235.292c0-.392.319-.711.711-.711h1.422v47.643H1.42a.71.71 0 01-.71-.711v-46.221z" fill="url(#paint2_linear_8_584)"/><path fill-rule="evenodd" clip-rule="evenodd" d="M2.487 234.937H1.421a.355.355 0 00-.355.355v46.221c0 .196.16.356.355.356h1.066v-46.932zm-1.066-.356a.711.711 0 00-.71.711v46.221a.71.71 0 00.71.711h1.422v-47.643H1.42z" fill="#474C57"/><path d="M.71 174.85a.71.71 0 01.711-.711h1.422v47.643H1.42a.711.711 0 01-.71-.711V174.85z" fill="url(#paint3_linear_8_584)"/><path fill-rule="evenodd" clip-rule="evenodd" d="M2.487 174.494H1.421a.356.356 0 00-.355.356v46.221c0 .196.16.355.355.355h1.066v-46.932zm-1.066-.355a.71.71 0 00-.71.711v46.221c0 .392.318.711.71.711h1.422v-47.643H1.42z" fill="#474C57"/><path d="M0 128.629c0-.392.318-.711.71-.711h2.133v24.177H.71a.71.71 0 01-.711-.711v-22.755z" fill="url(#paint4_linear_8_584)"/><path fill-rule="evenodd" clip-rule="evenodd" d="M2.487 128.274H.711a.355.355 0 00-.356.355v22.755c0 .197.16.356.356.356h1.776v-23.466zm-1.776-.356a.711.711 0 00-.711.711v22.755a.71.71 0 00.71.711h2.133v-24.177H.71z" fill="#474C57"/><path d="M2.843 59.654h3.553v3.555H2.843v-3.555z" fill="url(#paint5_linear_8_584)"/><path d="M306.314 65.343h3.554v3.555h-3.554v-3.555z" fill="url(#paint6_linear_8_584)"/><path d="M306.314 567.37h3.554v3.555h-3.554v-3.555z" fill="url(#paint7_linear_8_584)"/><path d="M64.674 631.367h3.554v3.556h-3.554v-3.556z" fill="url(#paint8_linear_8_584)"/><path d="M2.843 567.37h3.553v3.555H2.843v-3.555z" fill="url(#paint9_linear_8_584)"/><path d="M245.194 1.345h3.553V4.9h-3.553V1.345z" fill="url(#paint10_linear_8_584)"/><path d="M112.292 36.9c0-7.462 6.045-13.511 13.503-13.511h59.699c7.458 0 13.504 6.049 13.504 13.51 0 7.462-6.046 13.51-13.504 13.51h-59.699c-7.458 0-13.503-6.048-13.503-13.51z" fill="#040404"/><path d="M193.312 36.9a7.82 7.82 0 01-7.818 7.821 7.82 7.82 0 01-7.817-7.822 7.82 7.82 0 017.817-7.822 7.82 7.82 0 017.818 7.822z" fill="#060804"/><g filter="url(#filter4_f_8_584)"><path d="M189.759 36.9a4.265 4.265 0 11-8.529 0 4.265 4.265 0 118.529 0z" fill="url(#paint11_linear_8_584)"/></g><g filter="url(#filter5_f_8_584)"><path d="M184.428 35.3a.533.533 0 11-1.065 0 .533.533 0 011.065 0z" fill="#F4FBFF"/></g><g filter="url(#filter6_f_8_584)"><path d="M187.626 37.966a1.066 1.066 0 11-2.132 0 1.066 1.066 0 012.132 0z" fill="#8C8996"/></g><defs><linearGradient id="paint0_linear_8_584" x1="14.925" y1="209.55" x2="305.647" y2="220.393" gradientUnits="userSpaceOnUse"><stop stop-color="#EF9149"/><stop offset="1" stop-color="#F7B217"/><stop offset="1" stop-color="#F7B217"/></linearGradient><linearGradient id="paint1_linear_8_584" x1="310.934" y1="180.539" x2="310.934" y2="250.936" gradientUnits="userSpaceOnUse"><stop offset=".008" stop-color="#E6EDF9"/><stop offset=".02" stop-color="#53534F"/><stop offset=".043" stop-color="#000102"/><stop offset=".068" stop-color="#585854"/><stop offset=".089" stop-color="#1E1D1B"/><stop offset=".52" stop-color="#8F8F8F"/><stop offset=".89" stop-color="#201F1C"/><stop offset=".914" stop-color="#849AAF"/><stop offset=".947" stop-color="#00081C"/><stop offset=".974" stop-color="#596776"/><stop offset=".99" stop-color="#E6EDF9"/></linearGradient><linearGradient id="paint2_linear_8_584" x1="1.777" y1="234.581" x2="1.777" y2="282.224" gradientUnits="userSpaceOnUse"><stop offset=".008" stop-color="#E6EDF9"/><stop offset=".02" stop-color="#53534F"/><stop offset=".043" stop-color="#000102"/><stop offset=".068" stop-color="#585854"/><stop offset=".089" stop-color="#1E1D1B"/><stop offset=".52" stop-color="#8F8F8F"/><stop offset=".89" stop-color="#201F1C"/><stop offset=".914" stop-color="#849AAF"/><stop offset=".947" stop-color="#00081C"/><stop offset=".974" stop-color="#596776"/><stop offset=".99" stop-color="#E6EDF9"/></linearGradient><linearGradient id="paint3_linear_8_584" x1="1.777" y1="174.139" x2="1.777" y2="221.782" gradientUnits="userSpaceOnUse"><stop offset=".008" stop-color="#E6EDF9"/><stop offset=".02" stop-color="#53534F"/><stop offset=".043" stop-color="#000102"/><stop offset=".068" stop-color="#585854"/><stop offset=".089" stop-color="#1E1D1B"/><stop offset=".52" stop-color="#8F8F8F"/><stop offset=".89" stop-color="#201F1C"/><stop offset=".914" stop-color="#849AAF"/><stop offset=".947" stop-color="#00081C"/><stop offset=".974" stop-color="#596776"/><stop offset=".99" stop-color="#E6EDF9"/></linearGradient><linearGradient id="paint4_linear_8_584" x1="1.421" y1="127.918" x2="1.421" y2="152.095" gradientUnits="userSpaceOnUse"><stop offset=".008" stop-color="#E6EDF9"/><stop offset=".02" stop-color="#53534F"/><stop offset=".043" stop-color="#000102"/><stop offset=".068" stop-color="#585854"/><stop offset=".089" stop-color="#1E1D1B"/><stop offset=".52" stop-color="#8F8F8F"/><stop offset=".89" stop-color="#201F1C"/><stop offset=".914" stop-color="#849AAF"/><stop offset=".947" stop-color="#00081C"/><stop offset=".974" stop-color="#596776"/><stop offset=".99" stop-color="#E6EDF9"/></linearGradient><linearGradient id="paint5_linear_8_584" x1="6.396" y1="59.654" x2="2.843" y2="59.654" gradientUnits="userSpaceOnUse"><stop/><stop offset=".588" stop-color="#262626"/><stop offset=".747" stop-color="#3B3B3B"/><stop offset=".881" stop-color="#404040"/><stop offset="1" stop-color="#282828"/></linearGradient><linearGradient id="paint6_linear_8_584" x1="306.314" y1="68.898" x2="309.868" y2="68.898" gradientUnits="userSpaceOnUse"><stop/><stop offset=".588" stop-color="#262626"/><stop offset=".747" stop-color="#3B3B3B"/><stop offset=".881" stop-color="#404040"/><stop offset="1" stop-color="#282828"/></linearGradient><linearGradient id="paint7_linear_8_584" x1="306.314" y1="570.925" x2="309.868" y2="570.925" gradientUnits="userSpaceOnUse"><stop/><stop offset=".588" stop-color="#262626"/><stop offset=".747" stop-color="#3B3B3B"/><stop offset=".881" stop-color="#404040"/><stop offset="1" stop-color="#282828"/></linearGradient><linearGradient id="paint8_linear_8_584" x1="68.228" y1="631.367" x2="68.228" y2="634.923" gradientUnits="userSpaceOnUse"><stop/><stop offset=".588" stop-color="#262626"/><stop offset=".747" stop-color="#3B3B3B"/><stop offset=".881" stop-color="#404040"/><stop offset="1" stop-color="#282828"/></linearGradient><linearGradient id="paint9_linear_8_584" x1="6.396" y1="567.37" x2="2.843" y2="567.37" gradientUnits="userSpaceOnUse"><stop/><stop offset=".588" stop-color="#262626"/><stop offset=".747" stop-color="#3B3B3B"/><stop offset=".881" stop-color="#404040"/><stop offset="1" stop-color="#282828"/></linearGradient><linearGradient id="paint10_linear_8_584" x1="245.194" y1="4.9" x2="245.194" y2="1.345" gradientUnits="userSpaceOnUse"><stop/><stop offset=".588" stop-color="#262626"/><stop offset=".747" stop-color="#3B3B3B"/><stop offset=".881" stop-color="#404040"/><stop offset="1" stop-color="#282828"/></linearGradient><linearGradient id="paint11_linear_8_584" x1="189.759" y1="36.899" x2="181.23" y2="36.899" gradientUnits="userSpaceOnUse"><stop stop-color="#2C4DA8"/><stop offset=".242" stop-color="#04223F"/><stop offset=".5" stop-color="#030000"/><stop offset=".75" stop-color="#142221"/><stop offset="1" stop-color="#2E6058"/></linearGradient><filter id="filter0_i_8_584" x="2.132" y=".634" width="308.447" height="635" filterUnits="userSpaceOnUse" color-interpolation-filters="sRGB"><feFlood flood-opacity="0" result="BackgroundImageFix"/><feBlend in="SourceGraphic" in2="BackgroundImageFix" result="shape"/><feColorMatrix in="SourceAlpha" values="0 0 0 0 0 0 0 0 0 0 0 0 0 0 0 0 0 0 127 0" result="hardAlpha"/><feOffset/><feGaussianBlur stdDeviation=".5"/><feComposite in2="hardAlpha" operator="arithmetic" k2="-1" k3="1"/><feColorMatrix values="0 0 0 0 0.960784 0 0 0 0 0.976471 0 0 0 0 1 0 0 0 0.28 0"/><feBlend in2="shape" result="effect1_innerShadow_8_584"/></filter><filter id="filter1_i_8_584" x="2.132" y=".634" width="308.447" height="635" filterUnits="userSpaceOnUse" color-interpolation-filters="sRGB"><feFlood flood-opacity="0" result="BackgroundImageFix"/><feBlend in="SourceGraphic" in2="BackgroundImageFix" result="shape"/><feColorMatrix in="SourceAlpha" values="0 0 0 0 0 0 0 0 0 0 0 0 0 0 0 0 0 0 127 0" result="hardAlpha"/><feOffset/><feGaussianBlur stdDeviation=".5"/><feComposite in2="hardAlpha" operator="arithmetic" k2="-1" k3="1"/><feColorMatrix values="0 0 0 0 0.960784 0 0 0 0 0.976471 0 0 0 0 1 0 0 0 0.28 0"/><feBlend in2="shape" result="effect1_innerShadow_8_584"/></filter><filter id="filter2_i_8_584" x="122.952" y="5.256" width="65.385" height="3.133" filterUnits="userSpaceOnUse" color-interpolation-filters="sRGB"><feFlood flood-opacity="0" result="BackgroundImageFix"/><feBlend in="SourceGraphic" in2="BackgroundImageFix" result="shape"/><feColorMatrix in="SourceAlpha" values="0 0 0 0 0 0 0 0 0 0 0 0 0 0 0 0 0 0 127 0" result="hardAlpha"/><feOffset dy="1.5"/><feGaussianBlur stdDeviation=".5"/><feComposite in2="hardAlpha" operator="arithmetic" k2="-1" k3="1"/><feColorMatrix values="0 0 0 0 0 0 0 0 0 0 0 0 0 0 0 0 0 0 1 0"/><feBlend in2="shape" result="effect1_innerShadow_8_584"/></filter><filter id="filter3_i_8_584" x="122.597" y="4.9" width="66.096" height="3.844" filterUnits="userSpaceOnUse" color-interpolation-filters="sRGB"><feFlood flood-opacity="0" result="BackgroundImageFix"/><feBlend in="SourceGraphic" in2="BackgroundImageFix" result="shape"/><feColorMatrix in="SourceAlpha" values="0 0 0 0 0 0 0 0 0 0 0 0 0 0 0 0 0 0 127 0" result="hardAlpha"/><feOffset dy="1.5"/><feGaussianBlur stdDeviation=".5"/><feComposite in2="hardAlpha" operator="arithmetic" k2="-1" k3="1"/><feColorMatrix values="0 0 0 0 0 0 0 0 0 0 0 0 0 0 0 0 0 0 1 0"/><feBlend in2="shape" result="effect1_innerShadow_8_584"/></filter><filter id="filter4_f_8_584" x="180.23" y="31.633" width="10.528" height="10.533" filterUnits="userSpaceOnUse" color-interpolation-filters="sRGB"><feFlood flood-opacity="0" result="BackgroundImageFix"/><feBlend in="SourceGraphic" in2="BackgroundImageFix" result="shape"/><feGaussianBlur stdDeviation=".5" result="effect1_foregroundBlur_8_584"/></filter><filter id="filter5_f_8_584" x="182.362" y="33.766" width="3.066" height="3.067" filterUnits="userSpaceOnUse" color-interpolation-filters="sRGB"><feFlood flood-opacity="0" result="BackgroundImageFix"/><feBlend in="SourceGraphic" in2="BackgroundImageFix" result="shape"/><feGaussianBlur stdDeviation=".5" result="effect1_foregroundBlur_8_584"/></filter><filter id="filter6_f_8_584" x="184.494" y="35.899" width="4.132" height="4.133" filterUnits="userSpaceOnUse" color-interpolation-filters="sRGB"><feFlood flood-opacity="0" result="BackgroundImageFix"/><feBlend in="SourceGraphic" in2="BackgroundImageFix" result="shape"/><feGaussianBlur stdDeviation=".5" result="effect1_foregroundBlur_8_584"/></filter></defs></svg>