<svg width="638" height="633" fill="none" xmlns="http://www.w3.org/2000/svg"><path fill-rule="evenodd" clip-rule="evenodd" d="M283.482 534.751c-25.433-30.172-16.187-77.401-38.894-109.675-17.075-24.269-48.897-30.995-72.618-48.824C112.721 331.722 2.162 315.374.055 241.287c-1.78-62.618 120.652-38.066 165.758-81.534 43.765-42.176 23.397-149.226 83.446-158.622 63.511-9.938 88.103 91.69 144.25 122.993 37.867 21.111 113.887-14.833 124.944 27.087 14.827 56.218-100.248 99.469-77.456 152.956 28.615 67.153 154.314 40.578 187.607 105.539 26.332 51.38-10.302 120.909-50.131 162.706-39.952 41.927-103.059 65.677-160.507 58.342-55.582-7.096-98.369-53.161-134.484-96.003z" fill="#F0E6DF"/></svg>