<svg version="1.0" xmlns="http://www.w3.org/2000/svg" width="2437.333" height="1512" viewBox="0 0 1828 1134"><path d="M1613.4 23c-1.2.4-3.1 2.1-4.3 3.6-1.9 2.5-2.1 3.8-2.1 18.7 0 14.3.2 16.3 2 19.2 1.1 1.8 2.8 3.6 3.8 4 .9.4 8.2 1 16.2 1.2 12.8.5 15 .3 18.4-1.3 6.5-3.1 7.6-6.5 7.6-23 0-13-.2-14.4-2.3-17.5-1.2-1.8-3.4-3.9-4.7-4.6-2.9-1.5-31.2-1.7-34.6-.3zM449.7 39.7c-.4.3-.7 4.6-.7 9.5 0 6.8.3 8.8 1.4 8.8.9 0 1.2-.8.8-2.5-.4-2.3-.1-2.5 3-2.5 4.3 0 6.8-2.5 6.8-6.8 0-4.2-3.1-7.2-7.3-7.2-1.9 0-3.7.3-4 .7zm834.1 221.9c-.5.4-.8 4.7-.8 9.6 0 7.2.3 8.8 1.5 8.8 1 0 1.5-1.1 1.5-3.5 0-3.2.2-3.5 3-3.5 3.2 0 8-3.8 8-6.3 0-3-2.7-5-7.6-5.4-2.7-.3-5.2-.1-5.6.3zm46.7 8.6c-.4 2.4-1.3 5.3-2.1 6.5-1.6 2.6-1.9 7.3-.4 7.3.6 0 1-.9 1-2 0-1.8.7-2 5.4-2s5.4.3 5.9 2.2c.7 2.7 1.9 1.8 2.3-1.8.2-1.5-.3-2.7-1.2-3.1-1-.3-1.4-2.1-1.4-5.9V266h-8.8l-.7 4.2zm-294.5 7.4c-36 7.1-60.6 31.3-66.6 65.5-7.3 41.6 17.9 81.4 58.6 92.5 9 2.5 29 2.5 38 .1 8.9-2.4 21.3-8.6 28.5-14.2 13-10 24.7-27.9 28.1-43 .9-3.9 2-8.4 2.5-10.1 1.4-4.8 1-19.8-.7-27.7-2.1-9.4-10.4-26.1-17.1-34.2-15.1-18.3-34.9-28.1-58.3-29-5.8-.2-11.6-.1-13 .1zm58.1 30.1c8.6 9.9 22.9 35.2 25.5 45.3 1.5 6.1 1.5 6.5-.1 7.5-7 4.1-11 7.4-17.5 14.2-10.7 11.1-15.8 15.3-18.4 15.3-2.8 0-9.5-6.9-12.5-12.8-2.9-5.6-7.2-8.9-13.6-10.2l-5.5-1.1 1.6-2.4c1.2-1.8 1.4-3.7.9-7.3-1.1-7.9-2.5-8.5-1.9-.7.7 9-.4 10.5-8 11.6-3.1.4-7.8 1.8-10.4 3.1-4.3 2.1-5.1 3.1-9.7 12.3-7.8 15.6-9.9 15.7-27.4 1.7-9.2-7.4-15.6-11.3-22.3-13.5-4.6-1.6.2-22.9 9.8-43.6 5-10.6 8.7-16.1 11.1-16.1.9 0 3.1 1.5 4.9 3.4 3.8 3.9 6.6 4.6 18 4.6 28.8 0 57.5-5.6 68.7-13.5 2.9-2 3-2 6.8 2.2zm-30.9 65c3.4 3.9 3.1 6-1.3 10.7-4.2 4.7-8.5 6.6-14.7 6.6-7.2 0-16.3-6.5-16.1-11.7l.1-2.8.8 2.9c2.5 8.3 13 12 23 8 5.1-2.1 8.2-6.3 7.8-10.6-.2-2.5-.8-3.4-2.5-3.6-1.7-.3-2.3.2-2.3 1.7 0 2.6-5.9 4.3-13.8 3.9-4.8-.3-5.9-.7-6.7-2.6-.5-1.2-1.4-2.3-2-2.4-1-.2 13.5-1.3 21.6-1.6 3.3-.1 5 .3 6.1 1.5z"/><path d="M1063.4 321.1c-3.8 1.1-6.8 4.3-6.1 6.4.8 1.9 3.6 1.9 6.1 0 4.3-3.2 13.6-.3 15.6 4.9 1.1 3 2.3 3.8 4.4 3 2.2-.9 2-3.5-.7-7.4-3.9-6-12.4-9-19.3-6.9zm-44.9 3.3c-5.7 2.2-10.7 7.8-10.3 11.8.4 4.6 2.4 4.5 4.8-.1 3.4-6.8 8.4-8.7 17.6-6.6 3.9.9 5-.6 2.6-3.5-2.3-2.8-9.2-3.6-14.7-1.6zM894.5 468c-20 4.3-35.4 17.6-45.6 39.5-1.8 3.8-3.8 6.5-4.9 6.8-1.4.4-2 1.4-2 3.4 0 1.5-.3 4.6-.6 6.8l-.6 4 6.6-6.5c5.5-5.3 6.6-7 6.2-9-.5-3.1 5.6-16.1 9.8-20.7 4.9-5.5 14.6-10.3 14.6-7.3 0 .5-.4 1-1 1-.5 0-1 .6-1 1.4 0 .8-2.3 3.6-5.1 6.3-5.6 5.3-8.8 10.3-6.7 10.3.8 0 .6.5-.5 1.1-.9.5-2.4 2.3-3.2 3.9-1.5 2.9-1.3 2.8 7.2-2.2 12.8-7.4 20.9-10 32.3-10.6 20.1-.9 38 7.7 59.9 28.7 4.1 3.9 7.8 7.1 8.2 7.1.3 0 1.2 1.3 1.9 2.9.6 1.6 2.2 3.9 3.6 5.2 1.3 1.2 2.4 3.3 2.4 4.6 0 1.3.4 2.3.9 2.3.9 0 .5 20.9-.4 21.8-.8.8-.6 2.2.4 2.2.5 0 1.6-3 2.5-6.6 2.6-10.2 5-14.2 8.9-14.9 3-.6 3.3-.9 2.8-3.3-.4-2-.6-2.2-.9-.9-.2 1.1-1.1 1.7-2 1.5-1.4-.3-1.8-2-2.3-9.8-.3-5.2-1.2-12.5-1.9-16.2-1.1-5.3-1.1-7.5-.2-10.6 1.4-4.5.6-7.5-4.8-18.3-4.4-8.8-7.4-12.6-12-14.9-4.8-2.4-8.1-2.5-14-.4l-4.6 1.6-10.4-4c-5.8-2.2-13.4-4.5-17-5.2-8.6-1.6-21.5-2.1-26.5-1z"/><path d="M927.5 533.4c-1.1.8-1.6 1.9-1.2 3 .6 1.4 1.5 1.6 5.1 1.1 7.2-1.1 12.4 2.5 13.5 9.3.5 2.8 1.2 3.8 2.8 4 2.8.4 3.8-2.7 2.4-7.1-1.3-3.9-6.4-9.1-10.4-10.6-3.9-1.5-10-1.4-12.2.3zm-43.4 2.4c-1.7 3.1-1.3 7.3.9 11 2.5 4.1 4.1 4.7 7.7 2.9 4.9-2.6 7.5-6.1 7.1-9.8-.3-3.1-.7-3.5-4.3-4.1-2.2-.4-5.4-1-7.2-1.4-2.5-.5-3.3-.2-4.2 1.4zm41.2 9.3c-2 2-1.5 7.7.9 12 1.7 3.1 2.7 3.9 5.1 3.9 3.5 0 10.7-6.6 10.7-9.9 0-2.5-3.2-5.5-6.3-5.8-1.2-.2-3.8-.5-5.7-.9-2.2-.3-4-.1-4.7.7zm-36.6 26.6c-.4.3-.7 2.4-.7 4.6 0 3.4.6 4.6 3.9 7.7 4 3.9 7.4 5 14.7 5 7.8 0 15-9 9.5-11.9-1.5-.9-2-.7-2.4 1.1-.5 1.9-1.1 2-6.1 1.5-3-.3-7.5-1.5-10.1-2.6-3.9-1.7-4.5-2.4-4-4.1.5-1.6.2-2-1.8-2-1.3 0-2.7.3-3 .7zm83.3 17.2c0 1.6-.7 3.4-1.5 4.1-.8.7-1.5 2.7-1.5 4.5 0 2.1-.6 3.5-1.6 3.9-.9.4-1.4 1.3-1 2.2.3.8.2 1.2-.4.9-.6-.3-1-.1-1 .5s-.4.9-.9.5c-.9-.5-5.1 4.4-5.1 5.9 0 1.4-5.1 5.7-6 5.1-.6-.3-.7.1-.4 1 .4.9.3 1.5-.2 1.4-1.6-.4-4.4 1.3-3.8 2.2.3.5-.7.9-2.1.9-1.5 0-2.4.4-2 1 .3.5-.3 1-1.5 1-1.3 0-1.9.4-1.4 1.2.4.7.3.8-.4.4-.6-.4-3.7.6-6.9 2.3-6.6 3.3-13.2 4.9-25.3 6l-8.5.8 6.7.2c13.8.2 31.1-5 43.1-13.1 3.4-2.3 9.4-7.5 13.3-11.5 4-4 7.6-7.3 8-7.3.5 0 1-3.8 1.2-8.5.1-4.7 0-8.5-.3-8.5s-.5 1.3-.5 2.9zm111.3 81.2c-3 .9-8.3 6-8.3 8 0 2.3 3.3 2 5.9-.5 4.1-4 8.7-4.4 13.4-1.2 4.3 3 6.5 3.3 7.4 1.1 1.2-3.3-6.6-8.6-12.4-8.4-1.5 0-4.2.5-6 1zm47.1 7.8c.3 1.3-.2 3.4-1 4.6-1.3 2-1.3 2.4.1 3.5.8.7 1.5 2.2 1.5 3.4 0 1.1.9 3.6 2.1 5.5 2.6 4.3 6.3 14.2 7.8 21.1.7 3 1.8 7.1 2.6 9 4.1 11 4.3 22.4.4 30.4-1 2.2-1.9 4.4-1.9 5 0 2.2-6.8 11.5-12.4 17-3.4 3.3-4.7 5-2.9 3.8 8.4-5.9 17.7-20.2 20.2-31.2 2.1-9.2 1.5-13.5-5.4-38.4-.9-3.2-1.4-6.4-1.1-7.2.8-2-3.8-16.3-7.3-23-1.8-3.2-3-4.8-2.7-3.5zM180 843.7v37.1l3.2 3.1 3.2 3.1H1176l3.2-2.9 3.3-2.9.5-37.1c.3-20.4.4-37.1.3-37.1 0 0-1.7 1.6-3.6 3.5l-3.5 3.5H682.6c-436.1 0-494-.2-496.6-1.5-1.6-.8-3.6-2.5-4.4-3.7-1.5-2.1-1.6 1-1.6 34.9zm224-4.7c4 4 1.6 9.5-4.5 10.2-2.6.3-3.1.8-3.5 3.8-.3 2.2-1 3.5-2 3.5-1.2 0-1.6-1.9-1.8-9.8l-.3-9.7h5.1c3.7 0 5.5.5 7 2zm-43.8 13.2c-8.9 8.8-12.2 10-12.2 4.6 0-2.7 1.3-4.5 7.2-10.5l7.2-7.3 2.9 2.8 2.8 2.7-7.9 7.7zm87.2-10.1c5.5 2.6 5.2 11.6-.5 14-4.4 1.8-8.3-1.3-8.7-6.8-.3-3.4.1-4.4 2.4-6.2 3.1-2.4 3.5-2.5 6.8-1zm18.1.2c1.2 1 1.6 2.2 1.3 4.1-.3 1.4-.1 2.9.3 3.2 1.7 1 .9 4.4-1.6 6-1.8 1.1-3.5 1.4-6.5.9l-4-.7V849c0-4.5.4-7 1.3-7.3 2.4-1 7.4-.7 9.2.6zm451.4.3c1.5 1.1 2.1 2.3 1.7 3.7-.3 1.1-.1 2.9.5 3.9 2.2 4-3.1 7.6-9.2 6.3-2.8-.6-2.9-.8-2.9-7.5 0-4.5.4-7 1.3-7.3 2.5-1.1 6.3-.6 8.6.9zm-730.4 231.8c-6.2 2.7-6.5 4.2-6.3 27.8.1 12 .4 18.4.7 14.8.4-4.6.8-5.8 1.3-4.1.4 1.2 1 2.1 1.5 1.8.5-.3 3.7-.7 7.3-.8l6.4-.3-.3 5.3c-.1 2.9.3 7.4 1 10.2l1.3 4.9h8.3c4.6 0 8.3-.1 8.3-.3 0-.1-.9-3.6-2-7.7s-1.9-8.6-1.9-10c.1-1.8.3-2 .6-.7.4 1.4.8 1.5 1.8.7 1-.9 2-.7 3.8.5 1.3.8 3.1 1.3 3.9 1 .9-.4 2.6 1.1 4.9 4.4 2.3 3.4 4.3 5.2 6.2 5.7 1.9.4 2.7 1.1 2.3 2-.3.8-.1 1.4.5 1.4s.7.5.3 1.1c-.4.8-1.2.3-2-1.2-.9-1.6-1.3-1.9-1.4-.9-.1 3.8 5.4 5.5 6.3 2 .3-1.4 1.4-2 3.1-2 1.5 0 4.4.9 6.6 2 3.7 1.9 5.9 2 35 2h31v-9.1c0-6.8.3-9 1.3-8.7.8.3 1.3 3.3 1.5 9.2l.3 8.7 33.4-.1c31.5-.1 33.5-.2 33.5-1.9 0-1.4-.6-1.7-2.5-1.3-3.9.7-6.5-2.2-6.5-7.3 0-5.4 2.2-7.5 7.8-7.2l4.2.1v17.6h116.4c104.6 0 116.4-.2 117-1.6.3-.8 1-1.2 1.6-.9.5.3 1-.1 1-.9s-.4-1.8-1-2.1c-.5-.3-1-2.6-1-5 0-3.4.5-4.7 2.2-5.9 4.8-3.4 10-1.2 11.7 5l.8 2.9.7-3c1.1-4.8 2.1-6 5.3-6.3 2.9-.3 6.3 1.8 6.3 3.9 0 1.2-2.7 1.2-3.5-.1-.8-1.3-4.5-1.3-4.5 0 0 .5 1.7 1.8 3.7 2.7 4 1.9 5.2 4.5 3.3 6.8-1.8 2.2-7.6 1.9-10-.5-2.3-2.3-3.8-2.7-2-.5.7.8 1 2.4.7 3.5-.5 1.9 0 2 6.8 2 6.7 0 7.4-.2 7.7-2.1l.3-2 2.2 2c1.8 1.7 3.5 2.1 9.8 2.1 7.3 0 7.5-.1 7.5-2.4 0-4.1 1.8-7.6 3.5-7 1 .4 1.5 0 1.5-1.1 0-3 2.5-.9 3 2.6.4 3 3 5.5 3 2.9 0-.6-.6-1-1.2-1-.9 0-.8-.4.2-1.1 1.2-.8 1.2-1.2.2-1.6-1-.4-.9-.8.5-1.9 2.8-2.1 6-1.6 8.9 1.3 2.2 2.4 2.4 2.5 1.5.6-1-2-.9-2.3.9-2.3 1.7 0 2.1.6 2 2.7-.3 4.5.2 5.1.9 1l.6-3.9h8.9c5.7 0 9.1.4 9.6 1.2.5.8.9.6 1.4-.6 1.3-3.4 2.6 0 1.4 3.9-1.5 4.9-4.3 5-5.2.2-.7-3.6-2.6-4.9-2.6-1.8 0 1-.9 2.9-2 4.3s-2 2.8-2 3.2c0 .5 2.5.8 5.5.8 3.9 0 5.9-.5 7.2-1.8 1-1.1 2.6-2.2 3.5-2.5 1.4-.5 1.5-1.2.8-3.6-1-3.5.3-5.1 1.9-2.4.6 1 1.1 1.2 1.1.5 0-.6.9-1.2 2.1-1.2 1.6 0 2 .4 1.5 1.8s-.4 1.4.9-.2c1.5-1.9 1.5-1.9 1.5.5 0 1.3.5 3.1 1 3.9.8 1.1.9.8.4-1.2-.3-1.6-.4-3.5 0-4.3.8-2.2 3.6-.7 3.6 1.9 0 2.9.7 3.5 3.1 2.9 1.2-.3 1.9-1.3 1.8-2.7-.1-1.7-.2-1.7-.6-.4-.6 2.4-3.3 2.3-3.3-.1 0-1.3.9-2 2.8-2.3 4.2-.6 5.2 0 5.2 3.2 0 3.7 1.5 4.7 1.8 1.3.2-3 2-5.5 3.3-4.7.5.3 1 3.1 1.1 6.2l.2 5.7.3-4.8c.3-3.2.8-4.5 1.5-4.1.7.5.9.1.5-.9s-.1-1.7.6-1.8c.7 0 2.2-.2 3.4-.5 1.6-.3 3.4.9 6.8 4.4 2.5 2.6 4.3 3.9 3.9 2.9-.3-.9-.3-2.8 0-4.1.5-1.9 1.5-2.6 4.6-3.1 5.4-.9 7.8.1 8.3 3.3l.4 2.7.2-2.8c.1-2.3.5-2.7 3.1-2.7s3 .3 2.8 2.3c-.2 1.2-1.4 3.7-2.6 5.5l-2.3 3.2h3.4c1.9 0 4-.7 4.7-1.5.7-.8 1.6-1.2 2.1-1 .4.3-.4-1.5-1.7-4-2.4-4.1-2.4-4.5-.7-4.5 1 0 2.3 1 2.8 2.3 1.5 3.3 7.1 3.7 8 .5 1-2.9 2.6-4 4.2-2.6.9.7 1 1.5.2 3s-.8 1.9.1 1.3c.6-.4 1.5-1.8 2.1-3.2 1.1-3 3.3-2.6 3.7.8.5 3.3 1.6 4.2 4.1 3.4 1.3-.4 2.1-1.5 2.1-2.9 0-2.8.8-3.6 2.6-2.9.8.3 1.4 2 1.4 4.2 0 2.6.3 3.2 1 2.1.5-.8.7-2.4.4-3.6-.9-3.6 2.5-4 3.8-.4.5 1.7 1.4 3 1.9 3 .6 0 .6-.8 0-1.9-1.4-2.5-.5-3.1 4.7-3.1 4.7 0 4.9.4 2.8 6.5-.5 1.3-.2 1.1.7-.5l1.5-2.4.5 2.4c.3 1.4.5.6.4-1.7-.2-2.4.2-4.4.8-4.6 2.3-.9 3.5.6 3.5 4.4 0 3.3-.4 4-2.5 4.5-7.5 1.9 1.2 2.4 39.4 2.4 36.6 0 42-.2 42.5-1.5.3-.9 2.7-2.5 5.2-3.6 2.6-1.1 5.5-2.9 6.4-3.9 1.7-1.9 3.2-2 40.9-2 37.4 0 39.1.1 39.1 1.9 0 1.1 2.1 3.2 5.5 5.5l5.5 3.6h44v-11l14.3-.2c7.8-.2 26-.1 40.5.1 24.2.4 26.4.2 28.2-1.4 2.2-2 2.6-4.5.9-6.2-1.1-1.1 3.1-1.6 12.1-1.5 2.5 0 6.8.1 9.7.1l5.2.1.4 3.7c.2 2.1.4-5.1.5-15.9.2-21.1-.2-23.5-4.7-26.5-2.5-1.7-26.4-1.8-495.6-2-408.3-.2-493.5 0-496 1.1zm765.1 30.7c2.1.7 3.4.7 5.1-.2 2.1-1.1 2.7-.9 5.3 1.6 1.7 1.6 3 3.9 3 5.2 0 2.3-.1 2.3-11.5 2.3-9.6 0-11.5-.3-11.5-1.5 0-.8.5-1.5 1-1.5.6 0 1-.5 1-1 0-1.5 3.1-6 4-6 .5 0 2.1.5 3.6 1.1zm52.9-.2c.3.5 1.9 1.2 3.5 1.6 1.7.4 3.7 1.8 4.6 3.4 1 1.7 2.6 2.8 4.2 2.9 1.4.1 2.8.4 3 .7.3.3-6.6.5-15.3.5-13.8 0-15.6-.2-14.5-1.5.8-.9 1-2.8.6-5l-.7-3.5h7c3.8 0 7.2.4 7.6.9zM279 1116.7c1.9 8.8 2.4 9 4.4 1.3 1.1-4.1 2.4-7 3.1-7 .8 0 2 3 3.1 7.5 2 8.4 2.7 8.2 4.4-1.2.8-4.3 1.7-6.3 2.7-6.3 1.6 0 1.6-.1-1.2 11.7-1.2 5.1-2.5 8.3-3.3 8.3-1.4 0-1.4 0-3.7-8.3-.9-3.2-1.9-5.6-2.1-5.4-.3.3-1.3 3.3-2.2 6.8-2.4 8.8-4.5 9.1-6.2.7-.6-3.5-1.8-7.7-2.5-9.5-.7-1.7-1.1-3.4-.7-3.7 1.6-1.7 3 0 4.2 5.1zm90.7-3.5c4.1 4.5 3.7 14.4-.7 16.8-3.5 1.9-7.7 1.2-9.9-1.6-3.1-3.9-2.9-11.7.4-14.9 3.1-3.2 7.5-3.3 10.2-.3zm125.3 8.1c3.3 8.5 3.6 9.7 2 9.7-1.1 0-2-1-2.4-2.5-.5-2.1-1.2-2.5-4.6-2.5-3.4 0-4.2.4-5 2.5-.5 1.4-1.7 2.5-2.6 2.5-.9 0-1.4-.5-1.1-1.3.3-.6 2-4.8 3.7-9.1 1.7-4.3 3.3-8.3 3.6-8.8 1.3-2 2.7.2 6.4 9.5zm7-8.1c0 1.3.6 4.5 1.4 7.3 1.5 5.4 1.8 5.1 3.8-3.5 1.6-6.6 4.2-8 5.3-2.8.4 1.8 1.2 5.1 1.8 7.3l1 4 1.6-6.9c.9-3.8 2.2-7.1 2.9-7.4 1.4-.4 1.6 2.8.3 7.8-.6 1.9-1.5 5.4-2.1 7.7-1.5 5.9-3.5 5.5-5.4-1.1-.9-3-1.6-5.9-1.6-6.5 0-3.1-1.7-.3-3.4 5.4-2.8 10-4.3 8.8-7.5-5.6-.6-2.5-1.3-5.3-1.7-6.2-.4-1.3-.1-1.7 1.5-1.7 1.5 0 2.1.6 2.1 2.2zm34.6.2c2.4 2 2.8 3.1 2.8 7.9.1 6.8-2 9.7-7.2 9.7-5.6 0-8.2-3.1-8.2-9.7 0-4.4.5-5.8 2.5-7.8 3-3.1 6.6-3.2 10.1-.1zm18.7.5c1.1 1 2.1 3.9 2.4 6.3.4 3.7.1 4.9-2.2 7.6-2.3 2.8-3.3 3.2-7.6 3.2H543v-9.3c0-5.2.3-9.7.8-10.1 1.2-1.3 9.6.3 11.5 2.3zm55.4-.7c4.7 4.4 2.3 9.5-4.7 10-4.5.3-4.5.3-4.5 4.1 0 2.7-.4 3.7-1.6 3.7-1.4 0-1.6-1.3-1.4-9.7.2-5.4.4-9.9.4-10.1.1-.1 2.2-.2 4.8-.2 3.4 0 5.3.6 7 2.2zm-208.9 4.8c2.7 2.5 3 8.5.5 11.2-2.3 2.6-7.8 2.4-9.7-.4-2.3-3.2-2-7.8.6-10.5 2.7-2.8 5.7-2.9 8.6-.3z"/></svg>