<svg width="583" height="433" fill="none" xmlns="http://www.w3.org/2000/svg"><path fill-rule="evenodd" clip-rule="evenodd" d="M305.818 2.453c47.48 15.09 45.055 88.789 83.843 120.054 32.126 25.896 83.633 12.53 114.546 39.862 38.71 34.224 82.72 78.885 77.955 130.334-4.737 51.139-56.517 86.092-100.463 112.669-36.816 22.265-82.294 32.556-124.302 23.261-35.843-7.931-46.161-68.753-82.869-69.101-61.713-.585-114.721 96.663-168.685 66.717-44.473-24.68 38.744-99.541 22.612-147.778-22.432-67.073-142.68-95.547-127.06-164.526 14.043-62.018 117.83-36.54 177.54-58.407 43.94-16.093 82.286-67.258 126.883-53.085z" fill="#F0E6DF"/></svg>