<svg width="567" height="634" viewBox="0 0 567 634" fill="none" xmlns="http://www.w3.org/2000/svg">
<path fill-rule="evenodd" clip-rule="evenodd" d="M565.649 264.043C575.234 322.497 498.601 357.452 460.551 402.85C433.208 435.472 404.192 463.2 373.771 492.973C334.725 531.187 307.644 583.552 256.443 602.611C195.666 625.235 107.563 657.272 65.8952 607.579C18.5491 551.114 91.0001 464.172 79.3491 391.411C72.2075 346.811 22.3234 320.659 12.8789 276.489C0.824157 220.112 -9.08838 157.72 18.5638 107.133C47.7308 53.7753 102.803 10.4537 163.001 1.8551C221.772 -6.53954 276.131 31.5336 326.368 63.1671C366.407 88.379 385.25 134.199 421.488 164.621C467.12 202.929 556.008 205.248 565.649 264.043Z" fill="#F0E6DF"/>
</svg>
