<svg width="224" height="110" viewBox="0 0 224 110" fill="none" xmlns="http://www.w3.org/2000/svg">
<path d="M72.2 49.768C73.384 49.768 74.4187 50.0027 75.304 50.472C76.1893 50.9413 76.872 51.6027 77.352 52.456C77.8427 53.2987 78.088 54.2747 78.088 55.384C78.088 56.4827 77.8427 57.4587 77.352 58.312C76.872 59.1653 76.184 59.8267 75.288 60.296C74.4027 60.7653 73.3733 61 72.2 61H67.992V49.768H72.2ZM72.024 58.632C73.0587 58.632 73.864 58.3493 74.44 57.784C75.016 57.2187 75.304 56.4187 75.304 55.384C75.304 54.3493 75.016 53.544 74.44 52.968C73.864 52.392 73.0587 52.104 72.024 52.104H70.728V58.632H72.024ZM85.057 51.976C86.1023 51.976 86.9343 52.3173 87.553 53C88.1823 53.672 88.497 54.6 88.497 55.784V61H85.777V56.152C85.777 55.5547 85.6223 55.0907 85.313 54.76C85.0037 54.4293 84.5877 54.264 84.065 54.264C83.5423 54.264 83.1263 54.4293 82.817 54.76C82.5077 55.0907 82.353 55.5547 82.353 56.152V61H79.617V52.072H82.353V53.256C82.6303 52.8613 83.0037 52.552 83.473 52.328C83.9423 52.0933 84.4703 51.976 85.057 51.976ZM91.7743 51.144C91.2943 51.144 90.8996 51.0053 90.5903 50.728C90.2916 50.44 90.1423 50.088 90.1423 49.672C90.1423 49.2453 90.2916 48.8933 90.5903 48.616C90.8996 48.328 91.2943 48.184 91.7743 48.184C92.2436 48.184 92.6276 48.328 92.9263 48.616C93.2356 48.8933 93.3903 49.2453 93.3903 49.672C93.3903 50.088 93.2356 50.44 92.9263 50.728C92.6276 51.0053 92.2436 51.144 91.7743 51.144ZM93.1343 52.072V61H90.3983V52.072H93.1343ZM102.716 49.768C103.9 49.768 104.934 50.0027 105.82 50.472C106.705 50.9413 107.388 51.6027 107.868 52.456C108.358 53.2987 108.604 54.2747 108.604 55.384C108.604 56.4827 108.358 57.4587 107.868 58.312C107.388 59.1653 106.7 59.8267 105.804 60.296C104.918 60.7653 103.889 61 102.716 61H98.5076V49.768H102.716ZM102.54 58.632C103.574 58.632 104.38 58.3493 104.956 57.784C105.532 57.2187 105.82 56.4187 105.82 55.384C105.82 54.3493 105.532 53.544 104.956 52.968C104.38 52.392 103.574 52.104 102.54 52.104H101.244V58.632H102.54ZM114.197 61.128C113.322 61.128 112.533 60.9413 111.829 60.568C111.135 60.1947 110.586 59.6613 110.181 58.968C109.786 58.2747 109.589 57.464 109.589 56.536C109.589 55.6187 109.791 54.8133 110.197 54.12C110.602 53.416 111.157 52.8773 111.861 52.504C112.565 52.1307 113.354 51.944 114.229 51.944C115.103 51.944 115.893 52.1307 116.597 52.504C117.301 52.8773 117.855 53.416 118.261 54.12C118.666 54.8133 118.869 55.6187 118.869 56.536C118.869 57.4533 118.661 58.264 118.245 58.968C117.839 59.6613 117.279 60.1947 116.565 60.568C115.861 60.9413 115.071 61.128 114.197 61.128ZM114.197 58.76C114.719 58.76 115.162 58.568 115.525 58.184C115.898 57.8 116.085 57.2507 116.085 56.536C116.085 55.8213 115.903 55.272 115.541 54.888C115.189 54.504 114.751 54.312 114.229 54.312C113.695 54.312 113.253 54.504 112.901 54.888C112.549 55.2613 112.373 55.8107 112.373 56.536C112.373 57.2507 112.543 57.8 112.885 58.184C113.237 58.568 113.674 58.76 114.197 58.76ZM136.431 49.768V61H133.695V54.264L131.183 61H128.975L126.447 54.248V61H123.711V49.768H126.943L130.095 57.544L133.215 49.768H136.431ZM137.854 56.52C137.854 55.6027 138.025 54.7973 138.366 54.104C138.718 53.4107 139.193 52.8773 139.79 52.504C140.388 52.1307 141.054 51.944 141.79 51.944C142.42 51.944 142.969 52.072 143.438 52.328C143.918 52.584 144.286 52.92 144.542 53.336V52.072H147.278V61H144.542V59.736C144.276 60.152 143.902 60.488 143.422 60.744C142.953 61 142.404 61.128 141.774 61.128C141.049 61.128 140.388 60.9413 139.79 60.568C139.193 60.184 138.718 59.6453 138.366 58.952C138.025 58.248 137.854 57.4373 137.854 56.52ZM144.542 56.536C144.542 55.8533 144.35 55.3147 143.966 54.92C143.593 54.5253 143.134 54.328 142.59 54.328C142.046 54.328 141.582 54.5253 141.198 54.92C140.825 55.304 140.638 55.8373 140.638 56.52C140.638 57.2027 140.825 57.7467 141.198 58.152C141.582 58.5467 142.046 58.744 142.59 58.744C143.134 58.744 143.593 58.5467 143.966 58.152C144.35 57.7573 144.542 57.2187 144.542 56.536ZM154.234 58.68V61H152.842C151.85 61 151.076 60.76 150.522 60.28C149.967 59.7893 149.69 58.9947 149.69 57.896V54.344H148.602V52.072H149.69V49.896H152.426V52.072H154.218V54.344H152.426V57.928C152.426 58.1947 152.49 58.3867 152.618 58.504C152.746 58.6213 152.959 58.68 153.258 58.68H154.234ZM164.574 52.072V61H161.838V59.784C161.56 60.1787 161.182 60.4987 160.702 60.744C160.232 60.9787 159.71 61.096 159.134 61.096C158.451 61.096 157.848 60.9467 157.326 60.648C156.803 60.3387 156.398 59.896 156.11 59.32C155.822 58.744 155.678 58.0667 155.678 57.288V52.072H158.398V56.92C158.398 57.5173 158.552 57.9813 158.862 58.312C159.171 58.6427 159.587 58.808 160.11 58.808C160.643 58.808 161.064 58.6427 161.374 58.312C161.683 57.9813 161.838 57.5173 161.838 56.92V52.072H164.574ZM169.275 53.56C169.595 53.0693 169.995 52.6853 170.475 52.408C170.955 52.12 171.488 51.976 172.075 51.976V54.872H171.323C170.64 54.872 170.128 55.0213 169.787 55.32C169.446 55.608 169.275 56.12 169.275 56.856V61H166.539V52.072H169.275V53.56ZM182.503 52.072L176.903 65.24H173.959L176.007 60.696L172.375 52.072H175.431L177.495 57.656L179.543 52.072H182.503Z" fill="white"/>
<rect y="15" width="15" height="80" fill="white"/>
<path d="M109.641 75C105.238 82.6256 98.4424 88.5855 90.3073 91.9551C82.1722 95.3248 73.1526 95.916 64.6472 93.637C56.1419 91.358 48.6262 86.3362 43.2659 79.3504C37.9055 72.3646 35 63.8053 35 55C35 46.1946 37.9055 37.6353 43.2659 30.6495C48.6262 23.6637 56.1419 18.6419 64.6472 16.3629C73.1526 14.0839 82.1722 14.6751 90.3073 18.0448C98.4424 21.4144 105.238 27.3743 109.641 35L99.2487 41C96.1668 35.662 91.4097 31.4901 85.7151 29.1313C80.0206 26.7726 73.7068 26.3587 67.7531 27.954C61.7993 29.5493 56.5384 33.0646 52.7861 37.9546C49.0339 42.8447 47 48.8362 47 55C47 61.1637 49.0339 67.1552 52.7861 72.0453C56.5384 76.9353 61.7993 80.4506 67.7531 82.0459C73.7068 83.6412 80.0206 83.2274 85.7151 80.8686C91.4097 78.5098 96.1668 74.3379 99.2487 69L109.641 75Z" fill="white"/>
<path d="M134 35C138.403 27.3743 145.199 21.4145 153.334 18.0448C161.469 14.6751 170.488 14.0839 178.994 16.3629C187.499 18.6419 195.015 23.6637 200.375 30.6495C205.736 37.6353 208.641 46.1946 208.641 55C208.641 63.8053 205.736 72.3647 200.375 79.3504C195.015 86.3362 187.499 91.358 178.994 93.637C170.488 95.916 161.469 95.3248 153.334 91.9552C145.199 88.5855 138.403 82.6256 134 75L144.392 69C147.474 74.3379 152.231 78.5098 157.926 80.8686C163.62 83.2274 169.934 83.6412 175.888 82.0459C181.842 80.4506 187.103 76.9353 190.855 72.0453C194.607 67.1553 196.641 61.1637 196.641 55C196.641 48.8362 194.607 42.8447 190.855 37.9547C187.103 33.0646 181.842 29.5493 175.888 27.9541C169.934 26.3588 163.62 26.7726 157.926 29.1313C152.231 31.4901 147.474 35.662 144.392 41L134 35Z" fill="white"/>
</svg>
