<svg width="312" height="636" viewBox="0 0 312 636" fill="none" xmlns="http://www.w3.org/2000/svg">
<g filter="url(#filter0_i_8_584)">
<path d="M2.13211 58.943C2.13211 26.7398 28.224 0.633911 60.41 0.633911H252.301C284.487 0.633911 310.579 26.7398 310.579 58.943V577.325C310.579 609.528 284.487 635.634 252.301 635.634H60.41C28.224 635.634 2.13211 609.528 2.13211 577.325V58.943Z" fill="#1E1D1B"/>
</g>
<g filter="url(#filter1_i_8_584)">
<path fill-rule="evenodd" clip-rule="evenodd" d="M252.301 1.345H60.41C28.6165 1.345 2.84282 27.1325 2.84282 58.943V577.325C2.84282 609.135 28.6165 634.923 60.41 634.923H252.301C284.094 634.923 309.868 609.135 309.868 577.325V58.943C309.868 27.1325 284.094 1.345 252.301 1.345ZM60.41 0.633911C28.224 0.633911 2.13211 26.7398 2.13211 58.943V577.325C2.13211 609.528 28.224 635.634 60.41 635.634H252.301C284.487 635.634 310.579 609.528 310.579 577.325V58.943C310.579 26.7398 284.487 0.633911 252.301 0.633911H60.41Z" fill="#1E1D1B"/>
</g>
<path d="M6.39636 58.943C6.39636 29.0961 30.5791 4.90039 60.41 4.90039H252.301C282.132 4.90039 306.314 29.0961 306.314 58.9429V577.325C306.314 607.172 282.132 631.367 252.301 631.367H60.41C30.5791 631.367 6.39636 607.172 6.39636 577.325V58.943Z" fill="black"/>
<path fill-rule="evenodd" clip-rule="evenodd" d="M252.301 5.61148H60.41C30.9716 5.61148 7.10707 29.4888 7.10707 58.943V577.325C7.10707 606.779 30.9716 630.656 60.41 630.656H252.301C281.739 630.656 305.604 606.779 305.604 577.325V58.9429C305.604 29.4888 281.739 5.61148 252.301 5.61148ZM60.41 4.90039C30.5791 4.90039 6.39636 29.0961 6.39636 58.943V577.325C6.39636 607.172 30.5791 631.367 60.41 631.367H252.301C282.132 631.367 306.314 607.172 306.314 577.325V58.9429C306.314 29.0961 282.132 4.90039 252.301 4.90039H60.41Z" fill="#2C2C2D"/>
<g filter="url(#filter2_i_8_584)">
<path d="M125.017 7.38924C123.503 7.38924 123.01 6.29526 122.952 5.74827V5.25598H188.337V5.58418C188.337 7.02823 186.961 7.38924 186.272 7.38924H125.017Z" fill="#1E1D1B"/>
</g>
<g filter="url(#filter3_i_8_584)">
<path fill-rule="evenodd" clip-rule="evenodd" d="M122.597 4.90039H188.692V5.58413C188.692 6.44351 188.272 7.00178 187.752 7.32912C187.251 7.64445 186.664 7.74474 186.272 7.74474H125.017C124.164 7.74474 123.568 7.43261 123.179 7.01677C122.8 6.61182 122.635 6.12644 122.599 5.78532L122.597 5.76682V4.90039ZM123.308 5.61148V5.72806C123.333 5.93503 123.444 6.25961 123.698 6.53089C123.948 6.79878 124.355 7.03365 125.017 7.03365H186.272C186.568 7.03365 187.014 6.95343 187.374 6.72724C187.709 6.51642 187.973 6.17957 187.982 5.61148H123.308Z" fill="#272728"/>
</g>
<path d="M14.9248 61.7873C14.9248 35.0822 36.562 13.4335 63.2529 13.4335H249.458C276.149 13.4335 297.786 35.0822 297.786 61.7873V574.48C297.786 601.186 276.149 622.834 249.458 622.834H63.2529C36.562 622.834 14.9248 601.186 14.9248 574.48V61.7873Z" fill="url(#paint0_linear_8_584)"/>
<path fill-rule="evenodd" clip-rule="evenodd" d="M226.36 31.2106C225.771 31.2106 225.294 31.6881 225.294 32.2772V40.0991C225.294 40.6882 225.771 41.1658 226.36 41.1658C226.949 41.1658 227.426 40.6882 227.426 40.0991V32.2772C227.426 31.6881 226.949 31.2106 226.36 31.2106ZM221.385 34.4105C221.385 33.8214 221.862 33.3438 222.451 33.3438C223.04 33.3438 223.517 33.8214 223.517 34.4105V40.0991C223.517 40.6882 223.04 41.1658 222.451 41.1658C221.862 41.1658 221.385 40.6882 221.385 40.0991V34.4105ZM218.542 36.1882C217.953 36.1882 217.476 36.6657 217.476 37.2548V40.0991C217.476 40.6882 217.953 41.1658 218.542 41.1658C219.131 41.1658 219.608 40.6882 219.608 40.0991V37.2548C219.608 36.6657 219.131 36.1882 218.542 36.1882ZM214.633 37.6103C214.044 37.6103 213.567 38.0879 213.567 38.677V40.0991C213.567 40.6882 214.044 41.1658 214.633 41.1658C215.222 41.1658 215.699 40.6882 215.699 40.0991V38.677C215.699 38.0879 215.222 37.6103 214.633 37.6103Z" fill="#000103"/>
<path fill-rule="evenodd" clip-rule="evenodd" d="M247.142 34.2394C247.274 34.0939 247.263 33.8686 247.113 33.7416C245.203 32.1207 242.779 31.2221 240.267 31.2107C237.755 31.1993 235.323 32.0759 233.398 33.6794C233.247 33.805 233.235 34.0303 233.365 34.177L234.428 35.3714C234.559 35.5181 234.783 35.5304 234.935 35.4062C236.433 34.1812 238.314 33.5124 240.257 33.5212C242.199 33.53 244.074 34.2158 245.561 35.4543C245.712 35.5799 245.936 35.5696 246.068 35.4242L247.142 34.2394ZM244.49 36.6785C244.629 36.5397 244.63 36.3137 244.484 36.1828C243.314 35.1358 241.796 34.5527 240.219 34.5527C238.641 34.5527 237.124 35.1358 235.954 36.1828C235.808 36.3137 235.808 36.5397 235.947 36.6785L236.827 37.5585C236.965 37.6973 237.19 37.6961 237.339 37.5688C238.14 36.8866 239.16 36.5082 240.219 36.5082C241.278 36.5082 242.298 36.8866 243.099 37.5688C243.248 37.6961 243.472 37.6973 243.611 37.5585L244.49 36.6785ZM240.219 37.6103C241.042 37.6103 241.836 37.8963 242.468 38.4133C242.62 38.5376 242.619 38.7643 242.48 38.9031L240.47 40.9144C240.331 41.0532 240.106 41.0532 239.967 40.9144L237.957 38.9031C237.819 38.7643 237.818 38.5376 237.969 38.4133C238.601 37.8963 239.395 37.6103 240.219 37.6103Z" fill="#000103"/>
<path fill-rule="evenodd" clip-rule="evenodd" d="M255.143 31.9216H269.358C270.535 31.9216 271.49 32.8767 271.49 34.0549V39.0325C271.49 40.2107 270.535 41.1658 269.358 41.1658H255.143C253.966 41.1658 253.011 40.2107 253.011 39.0325V34.0549C253.011 32.8767 253.966 31.9216 255.143 31.9216ZM255.143 32.6327C254.358 32.6327 253.722 33.2694 253.722 34.0549V39.0325C253.722 39.8179 254.358 40.4547 255.143 40.4547H269.358C270.143 40.4547 270.779 39.8179 270.779 39.0325V34.0549C270.779 33.2694 270.143 32.6327 269.358 32.6327H255.143ZM254.433 34.766C254.433 33.9805 255.069 33.3438 255.854 33.3438H268.647C269.432 33.3438 270.068 33.9805 270.068 34.766V38.3214C270.068 39.1069 269.432 39.7436 268.647 39.7436H255.854C255.069 39.7436 254.433 39.1069 254.433 38.3214V34.766ZM273.622 36.5437C273.622 37.5255 272.985 38.3214 272.2 38.3214V34.766C272.985 34.766 273.622 35.5619 273.622 36.5437Z" fill="#000103"/>
<path d="M59.2225 32.5009C57.3878 32.5009 56.0368 33.7345 56.0368 35.4521V35.4639C56.0368 37.0635 57.1931 38.2441 58.8331 38.2441C59.9835 38.2441 60.833 37.6538 61.1693 36.8747H61.2047C61.2047 36.9691 61.1988 37.0576 61.1929 37.1462C61.1339 38.7576 60.5617 40.068 59.193 40.068C58.432 40.068 57.9128 39.6902 57.6827 39.1058L57.665 39.0527H56.1548L56.1666 39.1176C56.4321 40.4044 57.6119 41.3134 59.1871 41.3134C61.3581 41.3134 62.6618 39.6312 62.6618 36.8156V36.8038C62.6618 33.8171 61.0985 32.5009 59.2225 32.5009ZM59.2225 37.0694C58.255 37.0694 57.5353 36.3788 57.5353 35.4108V35.399C57.5353 34.4782 58.2963 33.7463 59.2402 33.7463C60.1959 33.7463 60.9392 34.4841 60.9392 35.4285V35.4344C60.9392 36.3847 60.1959 37.0694 59.2225 37.0694Z" fill="black"/>
<path d="M65.0447 35.5938C65.5226 35.5938 65.8943 35.216 65.8943 34.7379C65.8943 34.2598 65.5226 33.888 65.0447 33.888C64.5669 33.888 64.1893 34.2598 64.1893 34.7379C64.1893 35.216 64.5669 35.5938 65.0447 35.5938ZM65.0447 39.9263C65.5226 39.9263 65.8943 39.5485 65.8943 39.0704C65.8943 38.5923 65.5226 38.2204 65.0447 38.2204C64.5669 38.2204 64.1893 38.5923 64.1893 39.0704C64.1893 39.5485 64.5669 39.9263 65.0447 39.9263Z" fill="black"/>
<path d="M71.6103 41.1658H73.0616V39.5308H74.2179V38.2795H73.0616V32.6484H70.8965L67.3627 38.2323V39.5308H71.6103V41.1658ZM68.7314 38.3149V38.2736L71.5985 33.7994H71.6339V38.3149H68.7314Z" fill="black"/>
<path d="M77.7865 41.1658H79.2791V32.6484H77.7747L75.5507 34.2126V35.6115L77.7511 34.1005H77.7865V41.1658Z" fill="black"/>
<path d="M309.868 180.539H311.289C311.682 180.539 312 180.857 312 181.25V250.225C312 250.618 311.682 250.936 311.289 250.936H309.868V180.539Z" fill="url(#paint1_linear_8_584)"/>
<path fill-rule="evenodd" clip-rule="evenodd" d="M311.289 180.894H310.223V250.581H311.289C311.486 250.581 311.645 250.422 311.645 250.225V181.25C311.645 181.053 311.486 180.894 311.289 180.894ZM309.868 180.539V250.936H311.289C311.682 250.936 312 250.618 312 250.225V181.25C312 180.857 311.682 180.539 311.289 180.539H309.868Z" fill="#474C57"/>
<path d="M0.710693 235.292C0.710693 234.9 1.02889 234.581 1.4214 234.581H2.84281V282.224H1.4214C1.02889 282.224 0.710693 281.906 0.710693 281.513V235.292Z" fill="url(#paint2_linear_8_584)"/>
<path fill-rule="evenodd" clip-rule="evenodd" d="M2.48746 234.937H1.4214C1.22514 234.937 1.06605 235.096 1.06605 235.292V281.513C1.06605 281.709 1.22514 281.869 1.4214 281.869H2.48746V234.937ZM1.4214 234.581C1.02889 234.581 0.710693 234.9 0.710693 235.292V281.513C0.710693 281.906 1.02889 282.224 1.4214 282.224H2.84281V234.581H1.4214Z" fill="#474C57"/>
<path d="M0.710693 174.85C0.710693 174.457 1.02889 174.139 1.4214 174.139H2.84281V221.782H1.4214C1.02889 221.782 0.710693 221.463 0.710693 221.071V174.85Z" fill="url(#paint3_linear_8_584)"/>
<path fill-rule="evenodd" clip-rule="evenodd" d="M2.48746 174.494H1.4214C1.22514 174.494 1.06605 174.654 1.06605 174.85V221.071C1.06605 221.267 1.22514 221.426 1.4214 221.426H2.48746V174.494ZM1.4214 174.139C1.02889 174.139 0.710693 174.457 0.710693 174.85V221.071C0.710693 221.463 1.02889 221.782 1.4214 221.782H2.84281V174.139H1.4214Z" fill="#474C57"/>
<path d="M0 128.629C0 128.237 0.318194 127.918 0.710706 127.918H2.84282V152.095H0.710706C0.318194 152.095 0 151.777 0 151.384V128.629Z" fill="url(#paint4_linear_8_584)"/>
<path fill-rule="evenodd" clip-rule="evenodd" d="M2.48747 128.274H0.710706C0.514451 128.274 0.355353 128.433 0.355353 128.629V151.384C0.355353 151.581 0.51445 151.74 0.710706 151.74H2.48747V128.274ZM0.710706 127.918C0.318194 127.918 0 128.237 0 128.629V151.384C0 151.777 0.318194 152.095 0.710706 152.095H2.84282V127.918H0.710706Z" fill="#474C57"/>
<path d="M2.84283 59.6541H6.39637V63.2095H2.84283V59.6541Z" fill="url(#paint5_linear_8_584)"/>
<path d="M306.314 65.3428H309.868V68.8982H306.314V65.3428Z" fill="url(#paint6_linear_8_584)"/>
<path d="M306.314 567.37H309.868V570.925H306.314V567.37Z" fill="url(#paint7_linear_8_584)"/>
<path d="M64.6743 631.367H68.2278V634.923H64.6743V631.367Z" fill="url(#paint8_linear_8_584)"/>
<path d="M2.84283 567.37H6.39637V570.925H2.84283V567.37Z" fill="url(#paint9_linear_8_584)"/>
<path d="M245.194 1.34497H248.747V4.9004H245.194V1.34497Z" fill="url(#paint10_linear_8_584)"/>
<path d="M112.292 36.8993C112.292 29.4376 118.337 23.3887 125.795 23.3887H185.494C192.952 23.3887 198.998 29.4376 198.998 36.8993C198.998 44.361 192.952 50.4099 185.494 50.4099H125.795C118.337 50.4099 112.292 44.361 112.292 36.8993Z" fill="#040404"/>
<path d="M193.312 36.8993C193.312 41.2193 189.812 44.7213 185.494 44.7213C181.177 44.7213 177.677 41.2193 177.677 36.8993C177.677 32.5794 181.177 29.0774 185.494 29.0774C189.812 29.0774 193.312 32.5794 193.312 36.8993Z" fill="#060804"/>
<g filter="url(#filter4_f_8_584)">
<path d="M189.759 36.8993C189.759 39.2557 187.849 41.1658 185.494 41.1658C183.139 41.1658 181.23 39.2557 181.23 36.8993C181.23 34.543 183.139 32.6328 185.494 32.6328C187.849 32.6328 189.759 34.543 189.759 36.8993Z" fill="url(#paint11_linear_8_584)"/>
</g>
<g filter="url(#filter5_f_8_584)">
<path d="M184.428 35.2994C184.428 35.594 184.19 35.8327 183.895 35.8327C183.601 35.8327 183.362 35.594 183.362 35.2994C183.362 35.0049 183.601 34.7661 183.895 34.7661C184.19 34.7661 184.428 35.0049 184.428 35.2994Z" fill="#F4FBFF"/>
</g>
<g filter="url(#filter6_f_8_584)">
<path d="M187.626 37.9659C187.626 38.555 187.149 39.0326 186.56 39.0326C185.972 39.0326 185.494 38.555 185.494 37.9659C185.494 37.3768 185.972 36.8993 186.56 36.8993C187.149 36.8993 187.626 37.3768 187.626 37.9659Z" fill="#8C8996"/>
</g>
<defs>
<filter id="filter0_i_8_584" x="2.13211" y="0.633911" width="308.447" height="635" filterUnits="userSpaceOnUse" color-interpolation-filters="sRGB">
<feFlood flood-opacity="0" result="BackgroundImageFix"/>
<feBlend mode="normal" in="SourceGraphic" in2="BackgroundImageFix" result="shape"/>
<feColorMatrix in="SourceAlpha" type="matrix" values="0 0 0 0 0 0 0 0 0 0 0 0 0 0 0 0 0 0 127 0" result="hardAlpha"/>
<feOffset/>
<feGaussianBlur stdDeviation="0.5"/>
<feComposite in2="hardAlpha" operator="arithmetic" k2="-1" k3="1"/>
<feColorMatrix type="matrix" values="0 0 0 0 0.960784 0 0 0 0 0.976471 0 0 0 0 1 0 0 0 0.28 0"/>
<feBlend mode="normal" in2="shape" result="effect1_innerShadow_8_584"/>
</filter>
<filter id="filter1_i_8_584" x="2.13211" y="0.633911" width="308.447" height="635" filterUnits="userSpaceOnUse" color-interpolation-filters="sRGB">
<feFlood flood-opacity="0" result="BackgroundImageFix"/>
<feBlend mode="normal" in="SourceGraphic" in2="BackgroundImageFix" result="shape"/>
<feColorMatrix in="SourceAlpha" type="matrix" values="0 0 0 0 0 0 0 0 0 0 0 0 0 0 0 0 0 0 127 0" result="hardAlpha"/>
<feOffset/>
<feGaussianBlur stdDeviation="0.5"/>
<feComposite in2="hardAlpha" operator="arithmetic" k2="-1" k3="1"/>
<feColorMatrix type="matrix" values="0 0 0 0 0.960784 0 0 0 0 0.976471 0 0 0 0 1 0 0 0 0.28 0"/>
<feBlend mode="normal" in2="shape" result="effect1_innerShadow_8_584"/>
</filter>
<filter id="filter2_i_8_584" x="122.952" y="5.25598" width="65.3849" height="3.1333" filterUnits="userSpaceOnUse" color-interpolation-filters="sRGB">
<feFlood flood-opacity="0" result="BackgroundImageFix"/>
<feBlend mode="normal" in="SourceGraphic" in2="BackgroundImageFix" result="shape"/>
<feColorMatrix in="SourceAlpha" type="matrix" values="0 0 0 0 0 0 0 0 0 0 0 0 0 0 0 0 0 0 127 0" result="hardAlpha"/>
<feOffset dy="1.5"/>
<feGaussianBlur stdDeviation="0.5"/>
<feComposite in2="hardAlpha" operator="arithmetic" k2="-1" k3="1"/>
<feColorMatrix type="matrix" values="0 0 0 0 0 0 0 0 0 0 0 0 0 0 0 0 0 0 1 0"/>
<feBlend mode="normal" in2="shape" result="effect1_innerShadow_8_584"/>
</filter>
<filter id="filter3_i_8_584" x="122.597" y="4.90039" width="66.0957" height="3.84436" filterUnits="userSpaceOnUse" color-interpolation-filters="sRGB">
<feFlood flood-opacity="0" result="BackgroundImageFix"/>
<feBlend mode="normal" in="SourceGraphic" in2="BackgroundImageFix" result="shape"/>
<feColorMatrix in="SourceAlpha" type="matrix" values="0 0 0 0 0 0 0 0 0 0 0 0 0 0 0 0 0 0 127 0" result="hardAlpha"/>
<feOffset dy="1.5"/>
<feGaussianBlur stdDeviation="0.5"/>
<feComposite in2="hardAlpha" operator="arithmetic" k2="-1" k3="1"/>
<feColorMatrix type="matrix" values="0 0 0 0 0 0 0 0 0 0 0 0 0 0 0 0 0 0 1 0"/>
<feBlend mode="normal" in2="shape" result="effect1_innerShadow_8_584"/>
</filter>
<filter id="filter4_f_8_584" x="180.23" y="31.6328" width="10.5285" height="10.5331" filterUnits="userSpaceOnUse" color-interpolation-filters="sRGB">
<feFlood flood-opacity="0" result="BackgroundImageFix"/>
<feBlend mode="normal" in="SourceGraphic" in2="BackgroundImageFix" result="shape"/>
<feGaussianBlur stdDeviation="0.5" result="effect1_foregroundBlur_8_584"/>
</filter>
<filter id="filter5_f_8_584" x="182.362" y="33.7661" width="3.06607" height="3.06665" filterUnits="userSpaceOnUse" color-interpolation-filters="sRGB">
<feFlood flood-opacity="0" result="BackgroundImageFix"/>
<feBlend mode="normal" in="SourceGraphic" in2="BackgroundImageFix" result="shape"/>
<feGaussianBlur stdDeviation="0.5" result="effect1_foregroundBlur_8_584"/>
</filter>
<filter id="filter6_f_8_584" x="184.494" y="35.8993" width="4.13211" height="4.1333" filterUnits="userSpaceOnUse" color-interpolation-filters="sRGB">
<feFlood flood-opacity="0" result="BackgroundImageFix"/>
<feBlend mode="normal" in="SourceGraphic" in2="BackgroundImageFix" result="shape"/>
<feGaussianBlur stdDeviation="0.5" result="effect1_foregroundBlur_8_584"/>
</filter>
<linearGradient id="paint0_linear_8_584" x1="14.9248" y1="209.55" x2="305.647" y2="220.393" gradientUnits="userSpaceOnUse">
<stop stop-color="#EF9149"/>
<stop offset="1" stop-color="#F7B217"/>
<stop offset="1" stop-color="#F7B217"/>
</linearGradient>
<linearGradient id="paint1_linear_8_584" x1="310.934" y1="180.539" x2="310.934" y2="250.936" gradientUnits="userSpaceOnUse">
<stop offset="0.00827206" stop-color="#E6EDF9"/>
<stop offset="0.0202206" stop-color="#53534F"/>
<stop offset="0.0431985" stop-color="#000102"/>
<stop offset="0.0680147" stop-color="#585854"/>
<stop offset="0.0891544" stop-color="#1E1D1B"/>
<stop offset="0.520221" stop-color="#8F8F8F"/>
<stop offset="0.889706" stop-color="#201F1C"/>
<stop offset="0.913603" stop-color="#849AAF"/>
<stop offset="0.946691" stop-color="#00081C"/>
<stop offset="0.974265" stop-color="#596776"/>
<stop offset="0.98989" stop-color="#E6EDF9"/>
</linearGradient>
<linearGradient id="paint2_linear_8_584" x1="1.77675" y1="234.581" x2="1.77675" y2="282.224" gradientUnits="userSpaceOnUse">
<stop offset="0.00827206" stop-color="#E6EDF9"/>
<stop offset="0.0202206" stop-color="#53534F"/>
<stop offset="0.0431985" stop-color="#000102"/>
<stop offset="0.0680147" stop-color="#585854"/>
<stop offset="0.0891544" stop-color="#1E1D1B"/>
<stop offset="0.520221" stop-color="#8F8F8F"/>
<stop offset="0.889706" stop-color="#201F1C"/>
<stop offset="0.913603" stop-color="#849AAF"/>
<stop offset="0.946691" stop-color="#00081C"/>
<stop offset="0.974265" stop-color="#596776"/>
<stop offset="0.98989" stop-color="#E6EDF9"/>
</linearGradient>
<linearGradient id="paint3_linear_8_584" x1="1.77675" y1="174.139" x2="1.77675" y2="221.782" gradientUnits="userSpaceOnUse">
<stop offset="0.00827206" stop-color="#E6EDF9"/>
<stop offset="0.0202206" stop-color="#53534F"/>
<stop offset="0.0431985" stop-color="#000102"/>
<stop offset="0.0680147" stop-color="#585854"/>
<stop offset="0.0891544" stop-color="#1E1D1B"/>
<stop offset="0.520221" stop-color="#8F8F8F"/>
<stop offset="0.889706" stop-color="#201F1C"/>
<stop offset="0.913603" stop-color="#849AAF"/>
<stop offset="0.946691" stop-color="#00081C"/>
<stop offset="0.974265" stop-color="#596776"/>
<stop offset="0.98989" stop-color="#E6EDF9"/>
</linearGradient>
<linearGradient id="paint4_linear_8_584" x1="1.42141" y1="127.918" x2="1.42141" y2="152.095" gradientUnits="userSpaceOnUse">
<stop offset="0.00827206" stop-color="#E6EDF9"/>
<stop offset="0.0202206" stop-color="#53534F"/>
<stop offset="0.0431985" stop-color="#000102"/>
<stop offset="0.0680147" stop-color="#585854"/>
<stop offset="0.0891544" stop-color="#1E1D1B"/>
<stop offset="0.520221" stop-color="#8F8F8F"/>
<stop offset="0.889706" stop-color="#201F1C"/>
<stop offset="0.913603" stop-color="#849AAF"/>
<stop offset="0.946691" stop-color="#00081C"/>
<stop offset="0.974265" stop-color="#596776"/>
<stop offset="0.98989" stop-color="#E6EDF9"/>
</linearGradient>
<linearGradient id="paint5_linear_8_584" x1="6.39636" y1="59.6541" x2="2.84283" y2="59.6541" gradientUnits="userSpaceOnUse">
<stop/>
<stop offset="0.5875" stop-color="#262626"/>
<stop offset="0.746875" stop-color="#3B3B3B"/>
<stop offset="0.88125" stop-color="#404040"/>
<stop offset="1" stop-color="#282828"/>
</linearGradient>
<linearGradient id="paint6_linear_8_584" x1="306.314" y1="68.8982" x2="309.868" y2="68.8982" gradientUnits="userSpaceOnUse">
<stop/>
<stop offset="0.5875" stop-color="#262626"/>
<stop offset="0.746875" stop-color="#3B3B3B"/>
<stop offset="0.88125" stop-color="#404040"/>
<stop offset="1" stop-color="#282828"/>
</linearGradient>
<linearGradient id="paint7_linear_8_584" x1="306.314" y1="570.925" x2="309.868" y2="570.925" gradientUnits="userSpaceOnUse">
<stop/>
<stop offset="0.5875" stop-color="#262626"/>
<stop offset="0.746875" stop-color="#3B3B3B"/>
<stop offset="0.88125" stop-color="#404040"/>
<stop offset="1" stop-color="#282828"/>
</linearGradient>
<linearGradient id="paint8_linear_8_584" x1="68.2278" y1="631.367" x2="68.2278" y2="634.923" gradientUnits="userSpaceOnUse">
<stop/>
<stop offset="0.5875" stop-color="#262626"/>
<stop offset="0.746875" stop-color="#3B3B3B"/>
<stop offset="0.88125" stop-color="#404040"/>
<stop offset="1" stop-color="#282828"/>
</linearGradient>
<linearGradient id="paint9_linear_8_584" x1="6.39636" y1="567.37" x2="2.84283" y2="567.37" gradientUnits="userSpaceOnUse">
<stop/>
<stop offset="0.5875" stop-color="#262626"/>
<stop offset="0.746875" stop-color="#3B3B3B"/>
<stop offset="0.88125" stop-color="#404040"/>
<stop offset="1" stop-color="#282828"/>
</linearGradient>
<linearGradient id="paint10_linear_8_584" x1="245.194" y1="4.9004" x2="245.194" y2="1.34497" gradientUnits="userSpaceOnUse">
<stop/>
<stop offset="0.5875" stop-color="#262626"/>
<stop offset="0.746875" stop-color="#3B3B3B"/>
<stop offset="0.88125" stop-color="#404040"/>
<stop offset="1" stop-color="#282828"/>
</linearGradient>
<linearGradient id="paint11_linear_8_584" x1="189.759" y1="36.8993" x2="181.23" y2="36.8993" gradientUnits="userSpaceOnUse">
<stop stop-color="#2C4DA8"/>
<stop offset="0.242188" stop-color="#04223F"/>
<stop offset="0.5" stop-color="#030000"/>
<stop offset="0.75" stop-color="#142221"/>
<stop offset="1" stop-color="#2E6058"/>
</linearGradient>
</defs>
</svg>
