<?xml version="1.0" standalone="no"?>
<!DOCTYPE svg PUBLIC "-//W3C//DTD SVG 20010904//EN"
 "http://www.w3.org/TR/2001/REC-SVG-20010904/DTD/svg10.dtd">
<svg version="1.0" xmlns="http://www.w3.org/2000/svg"
 width="1828.000000pt" height="1134.000000pt" viewBox="0 0 1828.000000 1134.000000"
 preserveAspectRatio="xMidYMid meet">
<metadata>
Created by potrace 1.16, written by Peter Selinger 2001-2019
</metadata>
<g transform="translate(0.000000,1134.000000) scale(0.100000,-0.100000)"
fill="#000000" stroke="none">
<path d="M16134 11110 c-12 -4 -31 -21 -43 -36 -19 -25 -21 -38 -21 -187 0
-143 2 -163 20 -192 11 -18 28 -36 38 -40 9 -4 82 -10 162 -12 128 -5 150 -3
184 13 65 31 76 65 76 230 0 130 -2 144 -23 175 -12 18 -34 39 -47 46 -29 15
-312 17 -346 3z"/>
<path d="M4497 10943 c-4 -3 -7 -46 -7 -95 0 -68 3 -88 14 -88 9 0 12 8 8 25
-4 23 -1 25 30 25 43 0 68 25 68 68 0 42 -31 72 -73 72 -19 0 -37 -3 -40 -7z"/>
<path d="M12838 8724 c-5 -4 -8 -47 -8 -96 0 -72 3 -88 15 -88 10 0 15 11 15
35 0 32 2 35 30 35 32 0 80 38 80 63 0 30 -27 50 -76 54 -27 3 -52 1 -56 -3z"/>
<path d="M13305 8638 c-4 -24 -13 -53 -21 -65 -16 -26 -19 -73 -4 -73 6 0 10
9 10 20 0 18 7 20 54 20 47 0 54 -3 59 -22 7 -27 19 -18 23 18 2 15 -3 27 -12
31 -10 3 -14 21 -14 59 l0 54 -44 0 -44 0 -7 -42z"/>
<path d="M10360 8564 c-360 -71 -606 -313 -666 -655 -73 -416 179 -814 586
-925 90 -25 290 -25 380 -1 89 24 213 86 285 142 130 100 247 279 281 430 9
39 20 84 25 101 14 48 10 198 -7 277 -21 94 -104 261 -171 342 -151 183 -349
281 -583 290 -58 2 -116 1 -130 -1z m581 -301 c86 -99 229 -352 255 -453 15
-61 15 -65 -1 -75 -70 -41 -110 -74 -175 -142 -107 -111 -158 -153 -184 -153
-28 0 -95 69 -125 128 -29 56 -72 89 -136 102 l-55 11 16 24 c12 18 14 37 9
73 -11 79 -25 85 -19 7 7 -90 -4 -105 -80 -116 -31 -4 -78 -18 -104 -31 -43
-21 -51 -31 -97 -123 -78 -156 -99 -157 -274 -17 -92 74 -156 113 -223 135
-46 16 2 229 98 436 50 106 87 161 111 161 9 0 31 -15 49 -34 38 -39 66 -46
180 -46 288 0 575 56 687 135 29 20 30 20 68 -22z m-309 -650 c34 -39 31 -60
-13 -107 -42 -47 -85 -66 -147 -66 -72 0 -163 65 -161 117 l1 28 8 -29 c25
-83 130 -120 230 -80 51 21 82 63 78 106 -2 25 -8 34 -25 36 -17 3 -23 -2 -23
-17 0 -26 -59 -43 -138 -39 -48 3 -59 7 -67 26 -5 12 -14 23 -20 24 -10 2 135
13 216 16 33 1 50 -3 61 -15z"/>
<path d="M10634 8129 c-38 -11 -68 -43 -61 -64 8 -19 36 -19 61 0 43 32 136 3
156 -49 11 -30 23 -38 44 -30 22 9 20 35 -7 74 -39 60 -124 90 -193 69z"/>
<path d="M10185 8096 c-57 -22 -107 -78 -103 -118 4 -46 24 -45 48 1 34 68 84
87 176 66 39 -9 50 6 26 35 -23 28 -92 36 -147 16z"/>
<path d="M8945 6660 c-200 -43 -354 -176 -456 -395 -18 -38 -38 -65 -49 -68
-14 -4 -20 -14 -20 -34 0 -15 -3 -46 -6 -68 l-6 -40 66 65 c55 53 66 70 62 90
-5 31 56 161 98 207 49 55 146 103 146 73 0 -5 -4 -10 -10 -10 -5 0 -10 -6
-10 -14 0 -8 -23 -36 -51 -63 -56 -53 -88 -103 -67 -103 8 0 6 -5 -5 -11 -9
-5 -24 -23 -32 -39 -15 -29 -13 -28 72 22 128 74 209 100 323 106 201 9 380
-77 599 -287 41 -39 78 -71 82 -71 3 0 12 -13 19 -29 6 -16 22 -39 36 -52 13
-12 24 -33 24 -46 0 -13 4 -23 9 -23 9 0 5 -209 -4 -218 -8 -8 -6 -22 4 -22 5
0 16 30 25 66 26 102 50 142 89 149 30 6 33 9 28 33 -4 20 -6 22 -9 9 -2 -11
-11 -17 -20 -15 -14 3 -18 20 -23 98 -3 52 -12 125 -19 162 -11 53 -11 75 -2
106 14 45 6 75 -48 183 -44 88 -74 126 -120 149 -48 24 -81 25 -140 4 l-46
-16 -104 40 c-58 22 -134 45 -170 52 -86 16 -215 21 -265 10z"/>
<path d="M9275 6006 c-11 -8 -16 -19 -12 -30 6 -14 15 -16 51 -11 72 11 124
-25 135 -93 5 -28 12 -38 28 -40 28 -4 38 27 24 71 -13 39 -64 91 -104 106
-39 15 -100 14 -122 -3z"/>
<path d="M8841 5982 c-17 -31 -13 -73 9 -110 25 -41 41 -47 77 -29 49 26 75
61 71 98 -3 31 -7 35 -43 41 -22 4 -54 10 -72 14 -25 5 -33 2 -42 -14z"/>
<path d="M9253 5889 c-20 -20 -15 -77 9 -120 17 -31 27 -39 51 -39 35 0 107
66 107 99 0 25 -32 55 -63 58 -12 2 -38 5 -57 9 -22 3 -40 1 -47 -7z"/>
<path d="M8887 5623 c-4 -3 -7 -24 -7 -46 0 -34 6 -46 39 -77 40 -39 74 -50
147 -50 78 0 150 90 95 119 -15 9 -20 7 -24 -11 -5 -19 -11 -20 -61 -15 -30 3
-75 15 -101 26 -39 17 -45 24 -40 41 5 16 2 20 -18 20 -13 0 -27 -3 -30 -7z"/>
<path d="M9720 5451 c0 -16 -7 -34 -15 -41 -8 -7 -15 -27 -15 -45 0 -21 -6
-35 -16 -39 -9 -4 -14 -13 -10 -22 3 -8 2 -12 -4 -9 -6 3 -10 1 -10 -5 0 -6
-4 -9 -9 -5 -9 5 -51 -44 -51 -59 0 -14 -51 -57 -60 -51 -6 3 -7 -1 -4 -10 4
-9 3 -15 -2 -14 -16 4 -44 -13 -38 -22 3 -5 -7 -9 -21 -9 -15 0 -24 -4 -20
-10 3 -5 -3 -10 -15 -10 -13 0 -19 -4 -14 -12 4 -7 3 -8 -4 -4 -6 4 -37 -6
-69 -23 -66 -33 -132 -49 -253 -60 l-85 -8 67 -2 c138 -2 311 50 431 131 34
23 94 75 133 115 40 40 76 73 80 73 5 0 10 38 12 85 1 47 0 85 -3 85 -3 0 -5
-13 -5 -29z"/>
<path d="M10833 4639 c-30 -9 -83 -60 -83 -80 0 -23 33 -20 59 5 41 40 87 44
134 12 43 -30 65 -33 74 -11 12 33 -66 86 -124 84 -15 0 -42 -5 -60 -10z"/>
<path d="M11304 4561 c3 -13 -2 -34 -10 -46 -13 -20 -13 -24 1 -35 8 -7 15
-22 15 -34 0 -11 9 -36 21 -55 26 -43 63 -142 78 -211 7 -30 18 -71 26 -90 41
-110 43 -224 4 -304 -10 -22 -19 -44 -19 -50 0 -22 -68 -115 -124 -170 -34
-33 -47 -50 -29 -38 84 59 177 202 202 312 21 92 15 135 -54 384 -9 32 -14 64
-11 72 8 20 -38 163 -73 230 -18 32 -30 48 -27 35z"/>
<path d="M1800 2903 l0 -371 32 -31 32 -31 4948 0 4948 0 32 29 33 29 5 371
c3 204 4 371 3 371 0 0 -17 -16 -36 -35 l-35 -35 -4936 0 c-4361 0 -4940 2
-4966 15 -16 8 -36 25 -44 37 -15 21 -16 -10 -16 -349z m2240 47 c40 -40 16
-95 -45 -102 -26 -3 -31 -8 -35 -38 -3 -22 -10 -35 -20 -35 -12 0 -16 19 -18
98 l-3 97 51 0 c37 0 55 -5 70 -20z m-438 -132 c-89 -88 -122 -100 -122 -46 0
27 13 45 72 105 l72 73 29 -28 28 -27 -79 -77z m872 101 c55 -26 52 -116 -5
-140 -44 -18 -83 13 -87 68 -3 34 1 44 24 62 31 24 35 25 68 10z m181 -2 c12
-10 16 -22 13 -41 -3 -14 -1 -29 3 -32 17 -10 9 -44 -16 -60 -18 -11 -35 -14
-65 -9 l-40 7 0 68 c0 45 4 70 13 73 24 10 74 7 92 -6z m4514 -3 c15 -11 21
-23 17 -37 -3 -11 -1 -29 5 -39 22 -40 -31 -76 -92 -63 -28 6 -29 8 -29 75 0
45 4 70 13 73 25 11 63 6 86 -9z"/>
<path d="M1865 596 c-62 -27 -65 -42 -63 -278 1 -120 4 -184 7 -148 4 46 8 58
13 41 4 -12 10 -21 15 -18 5 3 37 7 73 8 l64 3 -3 -53 c-1 -29 3 -74 10 -102
l13 -49 83 0 c46 0 83 1 83 3 0 1 -9 36 -20 77 -11 41 -19 86 -19 100 1 18 3
20 6 7 4 -14 8 -15 18 -7 10 9 20 7 38 -5 13 -8 31 -13 39 -10 9 4 26 -11 49
-44 23 -34 43 -52 62 -57 19 -4 27 -11 23 -20 -3 -8 -1 -14 5 -14 6 0 7 -5 3
-11 -4 -8 -12 -3 -20 12 -9 16 -13 19 -14 9 -1 -38 54 -55 63 -20 3 14 14 20
31 20 15 0 44 -9 66 -20 37 -19 59 -20 350 -20 l310 0 0 91 c0 68 3 90 13 87
8 -3 13 -33 15 -92 l3 -87 334 1 c315 1 335 2 335 19 0 14 -6 17 -25 13 -39
-7 -65 22 -65 73 0 54 22 75 78 72 l42 -1 0 -88 0 -88 1164 0 c1046 0 1164 2
1170 16 3 8 10 12 16 9 5 -3 10 1 10 9 0 8 -4 18 -10 21 -5 3 -10 26 -10 50 0
34 5 47 22 59 48 34 100 12 117 -50 l8 -29 7 30 c11 48 21 60 53 63 29 3 63
-18 63 -39 0 -12 -27 -12 -35 1 -8 13 -45 13 -45 0 0 -5 17 -18 37 -27 40 -19
52 -45 33 -68 -18 -22 -76 -19 -100 5 -23 23 -38 27 -20 5 7 -8 10 -24 7 -35
-5 -19 0 -20 68 -20 67 0 74 2 77 21 l3 20 22 -20 c18 -17 35 -21 98 -21 73 0
75 1 75 24 0 41 18 76 35 70 10 -4 15 0 15 11 0 30 25 9 30 -26 4 -30 30 -55
30 -29 0 6 -6 10 -12 10 -9 0 -8 4 2 11 12 8 12 12 2 16 -10 4 -9 8 5 19 28
21 60 16 89 -13 22 -24 24 -25 15 -6 -10 20 -9 23 9 23 17 0 21 -6 20 -27 -3
-45 2 -51 9 -10 l6 39 89 0 c57 0 91 -4 96 -12 5 -8 9 -6 14 6 13 34 26 0 14
-39 -15 -49 -43 -50 -52 -2 -7 36 -26 49 -26 18 0 -10 -9 -29 -20 -43 -11 -14
-20 -28 -20 -32 0 -5 25 -8 55 -8 39 0 59 5 72 18 10 11 26 22 35 25 14 5 15
12 8 36 -10 35 3 51 19 24 6 -10 11 -12 11 -5 0 6 9 12 21 12 16 0 20 -4 15
-18 -5 -14 -4 -14 9 2 15 19 15 19 15 -5 0 -13 5 -31 10 -39 8 -11 9 -8 4 12
-3 16 -4 35 0 43 8 22 36 7 36 -19 0 -29 7 -35 31 -29 12 3 19 13 18 27 -1 17
-2 17 -6 4 -6 -24 -33 -23 -33 1 0 13 9 20 28 23 42 6 52 0 52 -32 0 -37 15
-47 18 -13 2 30 20 55 33 47 5 -3 10 -31 11 -62 l2 -57 3 48 c3 32 8 45 15 41
7 -5 9 -1 5 9 -4 10 -1 17 6 18 7 0 22 2 34 5 16 3 34 -9 68 -44 25 -26 43
-39 39 -29 -3 9 -3 28 0 41 5 19 15 26 46 31 54 9 78 -1 83 -33 l4 -27 2 28
c1 23 5 27 31 27 26 0 30 -3 28 -23 -2 -12 -14 -37 -26 -55 l-23 -32 34 0 c19
0 40 7 47 15 7 8 16 12 21 10 4 -3 -4 15 -17 40 -24 41 -24 45 -7 45 10 0 23
-10 28 -23 15 -33 71 -37 80 -5 10 29 26 40 42 26 9 -7 10 -15 2 -30 -8 -15
-8 -19 1 -13 6 4 15 18 21 32 11 30 33 26 37 -8 5 -33 16 -42 41 -34 13 4 21
15 21 29 0 28 8 36 26 29 8 -3 14 -20 14 -42 0 -26 3 -32 10 -21 5 8 7 24 4
36 -9 36 25 40 38 4 5 -17 14 -30 19 -30 6 0 6 8 0 19 -14 25 -5 31 47 31 47
0 49 -4 28 -65 -5 -13 -2 -11 7 5 l15 24 5 -24 c3 -14 5 -6 4 17 -2 24 2 44 8
46 23 9 35 -6 35 -44 0 -33 -4 -40 -25 -45 -75 -19 12 -24 394 -24 366 0 420
2 425 15 3 9 27 25 52 36 26 11 55 29 64 39 17 19 32 20 409 20 374 0 391 -1
391 -19 0 -11 21 -32 55 -55 l55 -36 220 0 220 0 0 55 0 55 143 2 c78 2 260 1
405 -1 242 -4 264 -2 282 14 22 20 26 45 9 62 -11 11 31 16 121 15 25 0 68 -1
97 -1 l52 -1 4 -37 c2 -21 4 51 5 159 2 211 -2 235 -47 265 -25 17 -264 18
-4956 20 -4083 2 -4935 0 -4960 -11z m7651 -307 c21 -7 34 -7 51 2 21 11 27 9
53 -16 17 -16 30 -39 30 -52 0 -23 -1 -23 -115 -23 -96 0 -115 3 -115 15 0 8
5 15 10 15 6 0 10 5 10 10 0 15 31 60 40 60 5 0 21 -5 36 -11z m529 2 c3 -5
19 -12 35 -16 17 -4 37 -18 46 -34 10 -17 26 -28 42 -29 14 -1 28 -4 30 -7 3
-3 -66 -5 -153 -5 -138 0 -156 2 -145 15 8 9 10 28 6 50 l-7 35 70 0 c38 0 72
-4 76 -9z m-7255 -118 c19 -88 24 -90 44 -13 11 41 24 70 31 70 8 0 20 -30 31
-75 20 -84 27 -82 44 12 8 43 17 63 27 63 16 0 16 1 -12 -117 -12 -51 -25 -83
-33 -83 -14 0 -14 0 -37 83 -9 32 -19 56 -21 54 -3 -3 -13 -33 -22 -68 -24
-88 -45 -91 -62 -7 -6 35 -18 77 -25 95 -7 17 -11 34 -7 37 16 17 30 0 42 -51z
m907 35 c41 -45 37 -144 -7 -168 -35 -19 -77 -12 -99 16 -31 39 -29 117 4 149
31 32 75 33 102 3z m1253 -81 c33 -85 36 -97 20 -97 -11 0 -20 10 -24 25 -5
21 -12 25 -46 25 -34 0 -42 -4 -50 -25 -5 -14 -17 -25 -26 -25 -9 0 -14 5 -11
13 3 6 20 48 37 91 17 43 33 83 36 88 13 20 27 -2 64 -95z m70 81 c0 -13 6
-45 14 -73 15 -54 18 -51 38 35 16 66 42 80 53 28 4 -18 12 -51 18 -73 l10
-40 16 69 c9 38 22 71 29 74 14 4 16 -28 3 -78 -6 -19 -15 -54 -21 -77 -15
-59 -35 -55 -54 11 -9 30 -16 59 -16 65 0 31 -17 3 -34 -54 -28 -100 -43 -88
-75 56 -6 25 -13 53 -17 62 -4 13 -1 17 15 17 15 0 21 -6 21 -22z m346 -2 c24
-20 28 -31 28 -79 1 -68 -20 -97 -72 -97 -56 0 -82 31 -82 97 0 44 5 58 25 78
30 31 66 32 101 1z m187 -5 c11 -10 21 -39 24 -63 4 -37 1 -49 -22 -76 -23
-28 -33 -32 -76 -32 l-49 0 0 93 c0 52 3 97 8 101 12 13 96 -3 115 -23z m554
7 c47 -44 23 -95 -47 -100 -45 -3 -45 -3 -45 -41 0 -27 -4 -37 -16 -37 -14 0
-16 13 -14 97 2 54 4 99 4 101 1 1 22 2 48 2 34 0 53 -6 70 -22z m-2089 -48
c27 -25 30 -85 5 -112 -23 -26 -78 -24 -97 4 -23 32 -20 78 6 105 27 28 57 29
86 3z"/>
</g>
</svg>
