<svg width="638" height="633" viewBox="0 0 638 633" fill="none" xmlns="http://www.w3.org/2000/svg">
<path fill-rule="evenodd" clip-rule="evenodd" d="M283.482 534.751C258.049 504.579 267.295 457.35 244.588 425.076C227.513 400.807 195.691 394.081 171.97 376.252C112.721 331.722 2.162 315.374 0.0552322 241.287C-1.72539 178.669 120.707 203.221 165.813 159.753C209.578 117.577 189.21 10.5266 249.259 1.13055C312.77 -8.80732 337.362 92.8206 393.509 124.124C431.376 145.235 507.396 109.291 518.453 151.211C533.28 207.429 418.205 250.68 440.997 304.167C469.612 371.32 595.311 344.745 628.604 409.706C654.936 461.086 618.302 530.615 578.473 572.412C538.521 614.339 475.414 638.089 417.966 630.754C362.384 623.658 319.597 577.593 283.482 534.751Z" fill="#F0E6DF"/>
</svg>
