<svg width="583" height="433" viewBox="0 0 583 433" fill="none" xmlns="http://www.w3.org/2000/svg">
<path fill-rule="evenodd" clip-rule="evenodd" d="M305.818 2.45324C353.298 17.5427 350.873 91.2417 389.661 122.507C421.787 148.403 473.294 135.037 504.207 162.369C542.917 196.593 586.927 241.254 582.162 292.703C577.425 343.842 525.645 378.795 481.699 405.372C444.883 427.637 399.405 437.928 357.397 428.633C321.554 420.702 311.236 359.88 274.528 359.532C212.815 358.947 159.807 456.195 105.843 426.249C61.3698 401.569 144.587 326.708 128.455 278.471C106.023 211.398 -14.2245 182.924 1.39474 113.945C15.4379 51.9268 119.225 77.4056 178.935 55.5375C222.875 39.4449 261.221 -11.7197 305.818 2.45324Z" fill="#F0E6DF"/>
</svg>
